<?xml version="1.0" encoding="UTF-8" standalone="no"?>
<!-- Created with Inkscape (http://www.inkscape.org/) -->

<svg
   xmlns:dc="http://purl.org/dc/elements/1.1/"
   xmlns:cc="http://creativecommons.org/ns#"
   xmlns:rdf="http://www.w3.org/1999/02/22-rdf-syntax-ns#"
   xmlns:svg="http://www.w3.org/2000/svg"
   xmlns="http://www.w3.org/2000/svg"
   xmlns:sodipodi="http://sodipodi.sourceforge.net/DTD/sodipodi-0.dtd"
   xmlns:inkscape="http://www.inkscape.org/namespaces/inkscape"
   width="34.114281mm"
   height="34.114281mm"
   viewBox="0 0 34.11428 34.11428"
   version="1.1"
   id="svg8"
   inkscape:version="0.92.3 (2405546, 2018-03-11)"
   sodipodi:docname="question.svg">
  <defs
     id="defs2" />
  <sodipodi:namedview
     id="base"
     pagecolor="#ffffff"
     bordercolor="#666666"
     borderopacity="1.0"
     inkscape:pageopacity="0.0"
     inkscape:pageshadow="2"
     inkscape:zoom="3.959798"
     inkscape:cx="-17.984764"
     inkscape:cy="67.878336"
     inkscape:document-units="mm"
     inkscape:current-layer="layer1"
     showgrid="false"
     inkscape:lockguides="true"
     fit-margin-top="0"
     fit-margin-left="0"
     fit-margin-right="0"
     fit-margin-bottom="0"
     inkscape:window-width="1920"
     inkscape:window-height="1017"
     inkscape:window-x="1912"
     inkscape:window-y="-8"
     inkscape:window-maximized="1" />
  <metadata
     id="metadata5">
    <rdf:RDF>
      <cc:Work
         rdf:about="">
        <dc:format>image/svg+xml</dc:format>
        <dc:type
           rdf:resource="http://purl.org/dc/dcmitype/StillImage" />
        <dc:title></dc:title>
      </cc:Work>
    </rdf:RDF>
  </metadata>
  <g
     inkscape:label="Layer 1"
     inkscape:groupmode="layer"
     id="layer1"
     transform="translate(-40.085218,-64.340142)">
    <g
       aria-label="?"
       style="font-style:normal;font-weight:normal;font-size:10.58333302px;line-height:1.25;font-family:sans-serif;letter-spacing:0px;word-spacing:0px;fill:#008000;fill-opacity:1;stroke:none;stroke-width:0.26458332"
       id="text817"
       transform="matrix(3.3005578,0,0,3.3005578,-140.0092,-143.51925)">
      <path
         d="m 61.941395,66.434515 q 0,1.286743 -1.038696,1.886189 -0.780314,0.444418 -0.847493,0.89917 -0.0155,0.118856 -0.02584,0.237712 -0.03617,0.10852 -0.186035,0.10852 -0.521932,0 -0.749308,0.06201 -0.04651,0.0155 -0.07235,0.0155 -0.186035,0 -0.186035,-0.506429 0,-0.43925 0.506429,-1.085205 0.511597,-0.651123 0.511597,-1.090373 0,-0.666626 -0.707968,-0.666626 -0.449584,0 -1.167887,0.3514 -0.222209,0 -0.222209,-1.317749 0,-0.144694 0.0155,-0.217041 0.07235,-0.346232 0.862997,-0.537435 0.573608,-0.139526 1.105875,-0.139526 0.935344,0 1.550293,0.521932 0.651123,0.552937 0.651123,1.477946 z m -1.400431,4.444173 q 0,0.397908 -0.279053,0.687296 -0.273885,0.289388 -0.671793,0.289388 -0.397909,0 -0.676961,-0.289388 -0.273886,-0.289388 -0.273886,-0.687296 0,-0.397909 0.273886,-0.676962 0.279052,-0.28422 0.676961,-0.28422 0.397908,0 0.671793,0.28422 0.279053,0.279053 0.279053,0.676962 z"
         style="font-style:normal;font-variant:normal;font-weight:normal;font-stretch:normal;font-family:'Berlin Sans FB Demi';-inkscape-font-specification:'Berlin Sans FB Demi';fill:#008000;stroke-width:0.26458332"
         id="path4522"
         inkscape:connector-curvature="0" />
    </g>
  </g>
</svg>
