<?xml version="1.0" encoding="UTF-8" standalone="no"?>
<!-- Created with Inkscape (http://www.inkscape.org/) -->

<svg
   xmlns:dc="http://purl.org/dc/elements/1.1/"
   xmlns:cc="http://creativecommons.org/ns#"
   xmlns:rdf="http://www.w3.org/1999/02/22-rdf-syntax-ns#"
   xmlns:svg="http://www.w3.org/2000/svg"
   xmlns="http://www.w3.org/2000/svg"
   xmlns:xlink="http://www.w3.org/1999/xlink"
   xmlns:sodipodi="http://sodipodi.sourceforge.net/DTD/sodipodi-0.dtd"
   xmlns:inkscape="http://www.inkscape.org/namespaces/inkscape"
   width="116.27238mm"
   height="116.27238mm"
   viewBox="0 0 116.27237 116.27238"
   version="1.1"
   id="svg8"
   inkscape:export-filename="C:\Users\robim\Downloads\leafchart.png"
   inkscape:export-xdpi="96"
   inkscape:export-ydpi="96"
   inkscape:version="0.92.3 (2405546, 2018-03-11)"
   sodipodi:docname="scale-like.svg">
  <defs
     id="defs2">
    <inkscape:perspective
       id="perspective535"
       inkscape:persp3d-origin="1083.1937 : 661.82617 : 1"
       inkscape:vp_z="2166.3874 : 992.73927 : 1"
       inkscape:vp_y="0 : 1000 : 0"
       inkscape:vp_x="0 : 992.73927 : 1"
       sodipodi:type="inkscape:persp3d" />
    <linearGradient
       id="linearGradient5282">
      <stop
         offset="0"
         style="stop-color:#2f6f47;stop-opacity:1"
         id="stop5284" />
      <stop
         offset="1"
         style="stop-color:#91bb7d;stop-opacity:1"
         id="stop5286" />
    </linearGradient>
    <linearGradient
       gradientUnits="userSpaceOnUse"
       xlink:href="#linearGradient5282"
       id="linearGradient5376"
       y2="245.33012"
       x2="1548.3607"
       y1="245.33012"
       x1="1345.2809" />
    <linearGradient
       gradientUnits="userSpaceOnUse"
       xlink:href="#linearGradient5282"
       id="linearGradient5378"
       y2="302.47803"
       x2="1467.9011"
       y1="196.30086"
       x1="1469.3796" />
    <linearGradient
       gradientTransform="translate(3,5.47854)"
       gradientUnits="userSpaceOnUse"
       xlink:href="#linearGradient5282"
       id="linearGradient3592"
       y2="665.78503"
       x2="1962.105"
       y1="572.35022"
       x1="1962.105" />
    <linearGradient
       gradientTransform="translate(3,5.47854)"
       gradientUnits="userSpaceOnUse"
       xlink:href="#linearGradient5282"
       id="linearGradient3620"
       y2="491.33566"
       x2="1433.3571"
       y1="385.6882"
       x1="1433.3571" />
    <linearGradient
       gradientTransform="translate(3,5.47854)"
       gradientUnits="userSpaceOnUse"
       xlink:href="#linearGradient5282"
       id="linearGradient3652"
       y2="855.71716"
       x2="1699.5398"
       y1="750.56134"
       x1="1699.5398" />
    <linearGradient
       gradientTransform="translate(3,5.47854)"
       gradientUnits="userSpaceOnUse"
       xlink:href="#linearGradient5282"
       id="linearGradient3688"
       y2="483.3541"
       x2="1706.6532"
       y1="375.09473"
       x1="1706.6532" />
    <linearGradient
       gradientTransform="translate(3,5.47854)"
       gradientUnits="userSpaceOnUse"
       xlink:href="#linearGradient5282"
       id="linearGradient3691"
       y2="307.56665"
       x2="1700.1044"
       y1="186.11629"
       x1="1700.1044" />
    <linearGradient
       gradientTransform="translate(3,5.47854)"
       gradientUnits="userSpaceOnUse"
       xlink:href="#linearGradient5282"
       id="linearGradient3695"
       y2="855.88007"
       x2="1423.2413"
       y1="751.30286"
       x1="1421.2045" />
    <linearGradient
       gradientTransform="translate(3,5.47854)"
       gradientUnits="userSpaceOnUse"
       xlink:href="#linearGradient5282"
       id="linearGradient3698"
       y2="499.08203"
       x2="1962.6976"
       y1="386.04053"
       x1="1962.6976" />
    <linearGradient
       gradientTransform="translate(3,5.47854)"
       gradientUnits="userSpaceOnUse"
       xlink:href="#linearGradient5282"
       id="linearGradient3701"
       y2="664.74902"
       x2="1688.5287"
       y1="554.81561"
       x1="1691.1407" />
    <linearGradient
       gradientTransform="translate(3,5.47854)"
       gradientUnits="userSpaceOnUse"
       xlink:href="#linearGradient5282"
       id="linearGradient3704"
       y2="856.83917"
       x2="1952.6637"
       y1="740.83624"
       x1="1953.7134" />
    <linearGradient
       gradientTransform="translate(3,5.47854)"
       gradientUnits="userSpaceOnUse"
       xlink:href="#linearGradient5282"
       id="linearGradient3707"
       y2="306.97083"
       x2="1978.7616"
       y1="194.61444"
       x1="1978.7616" />
    <linearGradient
       gradientTransform="translate(3,5.47854)"
       gradientUnits="userSpaceOnUse"
       xlink:href="#linearGradient5282"
       id="linearGradient3710"
       y2="674.83838"
       x2="1448.9865"
       y1="567.87836"
       x1="1449.6621" />
    <path
       id="ven1"
       d="m 1489.0966,1150.3325 -2.625,2.6563 c 0,-10e-5 -0.7394,-0.4102 -0.3126,0.5625 0.4269,0.9726 0.9996,2.3383 1.5938,3.8438 1.1885,3.0106 2.4475,6.7368 2.7188,8.9062 0.6517,5.214 2.2505,16.8861 2.5624,22.8125 0.3372,6.4045 1.9093,13.4911 -2.5,26.7187 -4.5357,13.6074 -6.5473,20.8236 -15.25,28.5938 -9.0329,8.065 -21.1662,18.235 -29.3124,20.5625 -4.5509,1.3001 -9.3231,2.7715 -13.3438,3.9375 -2.4734,0.7172 -4.651,1.2996 -6.2812,1.6875 l -0.9688,-19.125 c 0.6539,-0.023 1.378,-0.064 2.1562,-0.1563 3.2563,-0.3855 7.9525,-1.4124 13.9376,-3.9062 12.2082,-5.0867 22.0065,-15.5957 26.4062,-21.6875 2.439,-3.3772 4.3113,-8.7965 5.7188,-14.3437 1.4075,-5.5475 2.2776,-11.0718 2.0937,-14.75 -0.1588,-3.1788 -0.3104,-9.1085 -0.7187,-14.9063 -0.4083,-5.7979 -0.901,-11.2649 -2.3438,-14.5625 -2.2546,-5.1534 -7.125,-16.4688 -7.125,-16.4688 l -3.6875,1.5626 c 10e-5,-10e-5 4.8528,11.3065 7.125,16.5 0.8207,1.8757 1.6312,7.5692 2.0313,13.25 0.4001,5.6805 0.5543,11.5556 0.7187,14.8437 0.1395,2.7882 -0.628,8.2467 -1.9687,13.5313 -1.3408,5.2843 -3.3294,10.5568 -5.0938,13 -4.007,5.548 -13.6155,15.7304 -24.6875,20.3437 -5.6549,2.3562 -9.9878,3.2831 -12.875,3.625 -0.7218,0.085 -1.35,0.1285 -1.875,0.1563 l -0.875,-16.75 c 0.7406,0.047 1.5102,0.064 2.25,0.031 2.8715,-0.1268 6.4223,-0.4934 9.4375,-1.8125 5.9663,-2.6104 13.3332,-10.2472 16.6875,-24 3.2663,-13.3915 4.9253,-26.1024 4.25,-35.2187 -0.6679,-9.0169 -3.3125,-18.5 -3.3125,-18.5 l -3.8438,1.0624 c 10e-5,10e-5 2.5308,9.2753 3.1563,17.7188 0.6181,8.3436 -0.9556,20.8777 -4.1563,34 -3.1122,12.7607 -9.9947,19.3335 -14.375,21.25 -2.1581,0.9441 -5.3746,1.3842 -8,1.5 -0.8518,0.038 -1.608,0.035 -2.2812,0.031 l -0.7264,-17.4659 c 2.3746,-1.4664 6.1663,-2.5782 8.6952,-4.7215 3.2767,-3.2768 10.1248,-12.3737 12.1874,-23.0313 0.9836,-5.0814 1.6474,-9.9275 1.9376,-14.0313 0.2902,-4.1035 0.2554,-7.3847 -0.3438,-9.7812 -1.008,-4.0324 -2.3438,-7.375 -2.3438,-7.375 l -3.7187,1.4688 c 10e-5,-10e-5 1.2556,3.147 2.1875,6.875 0.3709,1.4833 0.4945,4.6323 0.2188,8.5312 -0.2757,3.8988 -0.8872,8.6203 -1.8438,13.5625 -1.8172,9.3891 -8.5503,18.3942 -11.0938,20.9375 -1.776,1.5483 -4.0356,2.1577 -6.3124,2.5 l -1.3438,-26.4375 c 3.1123,-0.9368 5.5443,-2.6093 7.0312,-5.5625 0.7783,-1.8482 1.0833,-3.7235 1.6876,-5.6875 0.8375,-2.7218 0.7283,-6.3384 0.5624,-9.5313 -0.083,-1.5962 -0.2091,-3.0355 -0.3124,-4.0937 -0.1033,-1.0583 -0.1876,-1.75 -0.1876,-1.75 -1.3787,0.8723 -2.7459,0.1928 -3.8554,0.1954 0.099,1.0131 0.2767,4.3514 0.3554,5.8671 0.1576,3.0314 0.05,6.6747 -0.4062,8.1562 -0.6889,2.2396 -1.0161,4.0889 -1.5312,5.3126 -0.5852,1.6713 -2.0179,2.2788 -3.5313,2.875 l -1.1875,-23.0313 -7.5938,0.4063 1.3607,23.8888 c -1.2529,0.1196 -2.3284,-0.031 -3.5169,-0.4826 -2.2521,-2.1453 -3.4941,-5.04 -4,-8.0625 0,-1.0847 0.3792,-4.9436 0.7812,-8.2813 0.4022,-3.3374 0.8126,-6.3124 0.8126,-6.3124 l -3.9688,-0.5626 c 0,10e-5 -0.4063,3.0035 -0.8125,6.375 -0.4062,3.3718 -0.8125,6.9559 -0.8125,8.7813 0,2.0475 0.7584,4.173 1.7812,6.2187 1.023,2.046 2.2469,3.9084 3.9063,5.0938 1.7664,1.2768 3.8094,1.4593 5.875,1.125 l 1.5313,29.9062 c -0.4588,0.3003 -0.9986,0.6276 -1.1563,0.6876 0.1906,-0.2315 0.5185,-0.3166 0.4687,-0.3126 -0.099,0.01 -1.7255,-0.2115 -5.125,-2.375 -6.9942,-4.4508 -13.0329,-9.4427 -15.0312,-15.4374 -2.1489,-6.447 -3.3903,-16.3651 -2.1875,-23.2813 1.252,-7.1982 4.125,-15.875 4.125,-15.875 l -3.7813,-1.25 c 10e-5,-10e-5 -2.9462,8.7622 -4.2812,16.4375 -1.3838,7.9573 -0.034,18.1165 2.3438,25.25 2.5283,7.585 9.4237,12.9288 16.6562,17.5312 3.7139,2.3635 5.7845,3.1222 7.625,2.9688 0.1963,-0.016 0.3728,-0.044 0.5625,-0.094 l 0.9375,18.625 c -0.1213,0 -0.039,0.01 -0.1875,0 -1.1436,-0.039 -2.7081,-0.124 -4.4375,-0.2812 -3.4587,-0.3145 -7.6062,-1.0375 -9.6562,-2.0625 -5.3224,-2.6614 -17.8235,-8.3258 -21.9688,-19.2813 -4.3789,-11.5729 -4.3835,-22.5837 -4.0625,-31.25 0.3126,-8.4397 2.875,-26.9374 2.875,-26.9374 l -3.9687,-0.5626 c 0,1e-4 -2.5723,18.3548 -2.9063,27.375 -0.3256,8.794 -0.3619,20.4274 4.3125,32.7813 4.9082,12.9713 18.9133,18.9567 23.9375,21.4687 3.1234,1.5618 7.4079,2.1052 11.0625,2.4376 1.8274,0.166 3.4868,0.2712 4.6875,0.3124 0.3239,0.011 0.2769,0 0.5313,0 l 0.75,15.0938 c -1.8803,-0.1125 -5.4755,-0.5973 -12.125,-2.1875 -13.9709,-3.341 -31.9036,-18.4434 -38.4063,-25.875 -3.2668,-3.7336 -4.6377,-6.3075 -5.625,-10.2187 -0.9873,-3.9115 -1.489,-9.2421 -2.625,-17.8438 -1.0819,-8.1923 -0.07,-18.9323 1.25,-27.5312 1.3199,-8.5992 2.9375,-15.0626 2.9375,-15.0626 l -3.3994,-0.875 c 0,1e-4 -2.1279,6.5635 -3.4756,15.3438 -1.3476,8.7802 -2.4626,19.7117 -1.2812,28.6562 1.1273,8.5353 1.6043,13.8668 2.7187,18.2813 1.1144,4.4144 2.9767,7.8484 6.5,11.875 7.0777,8.0885 24.7239,23.3525 40.5,27.125 7.1837,1.7178 10.9873,2.258 13.25,2.3437 l 0.8437,16.75 c -4.0471,0.1549 -9.6967,-0.013 -16.75,-1.625 -10.9495,-2.5026 -24.4421,-9.0237 -30.75,-15.0312 -6.3082,-6.0081 -20.9667,-24.1111 -21.4374,-24.9062 -1.5357,-2.5948 -2.8761,-2.2961 -2.8761,-2.2961 l -0.6239,4.3585 c 0,1e-4 15.0542,18.9565 22.1874,25.75 7.2723,6.9262 20.9101,13.3296 32.5938,16 7.4568,1.7046 13.5755,1.8774 17.875,1.7188 l 0.875,17.6875 c -2.3385,0.1249 -4.1201,0.1385 -4.9688,-0.031 -1.6794,-0.3357 -6.4528,-1.2043 -11.7812,-2.4062 -5.3283,-1.202 -11.2227,-2.7572 -14.6562,-4.25 -3.6475,-1.5859 -10.6693,-4.8927 -17.4688,-8.3125 -6.7994,-3.4199 -13.4841,-7.0527 -16.0938,-8.9375 -2.854,-2.0614 -4.4938,-3.4681 -5.375,-4.3125 -0.881,-0.8445 -0.875,-0.9063 -0.875,-0.9063 l -3.4374,2.0626 c 0,-10e-5 0.5036,0.7351 1.5624,1.75 1.059,1.0146 2.8153,2.5141 5.7813,4.6562 3.2105,2.3185 9.7634,5.7989 16.625,9.25 6.8616,3.451 13.8981,6.7588 17.6875,8.4062 4.0032,1.7406 9.9524,3.277 15.375,4.5 5.4227,1.2233 10.3212,2.1267 11.875,2.4376 1.6644,0.3328 3.5992,0.2264 5.9688,0.062 l 0.3437,6.875 7.5937,-0.4062 -0.3437,-6.9688 c 2.1141,-0.1159 4.4154,-0.1875 6.875,-0.1874 5.1612,-10e-5 11.3744,-1.1648 16.375,-2.3126 11.2489,-3.7405 6.9059,-1.9574 18.6563,-6.875 9.8808,-4.0884 17.1577,-11.7745 20.8124,-16.0937 2.022,-2.3896 4.2517,-6.2584 6.0938,-9.6563 1.8422,-3.3976 3.25,-6.2812 3.25,-6.2812 l 0.4621,-5.223 c 10e-5,-10e-5 -5.4167,6.2865 -7.2121,9.598 -1.7953,3.3114 -4.0901,7.1861 -5.625,9 -3.4587,4.0874 -10.4399,11.2661 -19.3125,14.9375 -11.054,5.0719 -7.6707,3.9864 -18.0313,6.6875 -4.8611,1.1156 -10.9298,2.2188 -15.4687,2.2188 -2.5635,-10e-5 -4.9211,0.062 -7.0937,0.1874 l -0.9063,-17.9062 c 1.9136,-0.4081 4.3318,-1.0782 7.1875,-1.9062 4.0628,-1.1783 8.8412,-2.6511 13.3438,-3.9376 9.9605,-2.8457 21.7697,-13.3359 30.8437,-21.4374 9.4043,-8.3968 11.8886,-16.7282 16.4063,-30.2813 4.6442,-13.9326 2.9971,-22.3365 2.6874,-28.2187 -0.3346,-6.3606 -1.9522,-17.9611 -2.5937,-23.0938 -0.3755,-3.0041 -1.7321,-6.7424 -2.9687,-9.875 -0.6183,-1.5664 -1.2142,-2.9609 -1.6563,-3.9688 -0.4421,-1.0076 -0.7187,-1.625 -0.7187,-1.625 z m -141.0938,137.0313 -1.4688,3.7187 c 10e-5,10e-5 14.9442,5.8644 19.3438,7.75 1.549,0.664 4.1036,1.2663 7.5,2.0313 3.3965,0.7649 7.4752,1.605 11.4062,2.375 7.8622,1.5399 15.1563,2.8437 15.1563,2.8437 l 8.4863,-2.4364 c 10e-5,-10e-5 -15.0416,-2.8131 -22.8613,-4.3448 -3.9098,-0.766 -7.9482,-1.593 -11.2813,-2.3438 -3.3329,-0.7505 -6.1294,-1.5064 -6.8437,-1.8124 -4.6534,-1.9946 -19.4375,-7.7813 -19.4375,-7.7813 z"
       inkscape:connector-curvature="0" />
    <path
       id="ven2"
       d="m 1644.9588,1302.9793 c -5.5926,0.059 -14.7265,-6.0799 -15.2974,-11.9776 l -0.2827,-4.4715 6.6963,6.3935 c -0.3535,-6.8039 0.9056,-14.6591 -0.521,-18.6523 -1.9826,-2.6872 -6.458,-7.4035 -6.458,-11.9541 0,-5.0642 2.2433,-4.6946 4.229,-5.3498 l 13.9666,-0.3311 c -3.95,-4.8934 -7.5315,-10.0633 -11.0577,-15.2661 -3.9939,-5.9649 -7.6962,-8.5619 -7.6716,-11.5 0.028,-3.372 0.1801,-7.5578 5.6025,0.784 -0.3379,-4.9659 1.2945,-14.4001 2.3274,-17.8445 1.3298,-3.7691 1.2641,-4.0753 -1.9985,-9.316 -3.1222,-5.015 -5.3477,-5.4493 -5.2871,-12.8533 l 0.065,-9.6963 c 1.3247,4.9299 4.2459,11.1495 6.5156,15.7435 1.7226,-5.8115 0.7786,-13.6557 3.7543,-20.0473 2.5701,-5.0719 2.6011,-5.3465 1.1165,-9.891 -0.8398,-2.5709 -1.8222,-6.5868 -2.183,-8.9243 -0.4376,-2.8352 -0.2876,-4.25 0.4508,-4.25 l 22.214,6.8648 c -0.1387,-2.2724 -2.7252,-9.0403 1.0238,-8.68 4.0373,5.6717 3.0922,15.1419 6.9819,20.8152 5.1767,-11.5448 5.4834,-7.3558 2.0809,-21.7014 1.5433,0.7058 2.8338,1.7492 3.8712,0.5588 1.7567,9.1891 6.5787,20.945 11.3504,28.6266 1.1095,-4.6443 2.3719,-9.2472 4.2072,-13.6628 2.2614,-3.9111 0.027,-7.5 -0.5806,-11.4704 0,-0.7429 0.7154,-1.3508 1.5897,-1.3508 l 13.3447,6.9576 c -0.7852,-1.9911 -1.5696,-3.9791 -1.9344,-6.0922 -1.1309,-2.5315 2.2929,-1.9916 3.3675,-1.8158 4.1504,7.3502 7.0002,15.5489 12.6325,19.1944 v -18.244 h 6 v 17.4245 c 3.4152,-3.6847 6.2456,-7.8012 8.7077,-12.1721 2.0949,-3.9369 3.3522,-5.2482 5.0342,-5.25 3.7438,0.2271 -0.4708,5.967 -0.4386,8.6343 4.6683,0.4937 10.9933,-1.9936 12.6967,-6.622 0,-1.4823 0.6606,-2.0147 2.5,-2.0147 1.375,0 2.5,0.369 2.5,0.82 11.3536,10.6324 8.0884,21.5314 10.4147,30.8232 4.6863,-6.4309 8.8723,-14.5561 12.678,-21.6432 1.3472,-2.5445 1.7551,2.8761 1.7547,4.6636 -1.0309,7.535 -7.4596,6.7159 -5.9812,14.506 3.5384,6.7871 -0.4981,26.753 1.7784,23.9274 6.1338,-7.7718 2.6251,-2.7226 4.2036,0.8798 -1.2785,6.4729 -10.5239,10.5919 -15.8994,13.5492 -5.2133,1.9393 -5.0941,6.2711 -6.5033,10.8089 4.6752,1.9827 15.9556,-8.1022 21.1296,-11.3349 0.3067,0 0.698,2.9147 0.524,4.4038 l -9.2546,7.5962 c 2.7481,-0.082 5.4329,-0.021 8.0336,0.9035 2.746,0.4858 2.4587,2.8254 2.0407,3.5016 -6.827,0.9717 -12.0932,-5.1119 -21.8106,1.1221 -6.367,2.498 -6.9428,2.9774 -8.0616,6.7115 -1.1574,4.9722 -4.9928,8.8096 -6.6134,13.5279 0.1724,0.1724 3.7852,-1.0658 8.0285,-2.7514 10.3191,-2.415 17.6638,-10.3512 26.7189,-15.0152 0.4507,0 0.8194,1.0487 0.8194,2.3305 0,1.6145 -1.1564,3.6571 -4.473,5.5427 -6.8356,3.8862 -4.7219,4.181 -5.554,7.4195 -0.9078,5.1444 -3.5789,10.1425 -3.6107,15.403 5.3033,-0.6836 8.4018,-5.5937 12.8266,-7.6957 0.5191,0 0.8015,1.2375 0.6275,2.75 -5.2502,11.2941 -23.2249,12.7681 -33.5375,17.4335 l -7.4051,9.8603 c 14.2589,-0.4789 26.5051,-8.0736 39.73,-12.0438 0.7679,0 1.3962,0.9293 1.3962,2.0651 -9.7168,9.2972 -32.2258,11.8813 -46.5,15.1343 -12.9697,1.7418 -20.7376,3.0113 -43.4346,3.0728 -17.8714,0.049 -29.8019,1.1279 -29.9883,0.4896 -0.7674,-1.961 1.2036,-2.6593 -0.073,-3.4505 -5.8749,-3.6404 -14.1337,-11.2412 -20.004,-17.7576 v 15.333 l 10.479,6.508 z m 91.1162,-10.6051 c 0.9973,-3.0636 4.632,-5.8856 6.1309,-8.6915 -19.6,5.0386 -35.6033,3.6297 -57.771,6.1038 -1.7875,1.6891 -6.3599,6.6131 -6.3599,7.1413 11.3309,-0.2228 50.2715,1.9066 58,-4.5536 z m -70.0876,3.1889 c 4.5711,-1.6014 10.0507,-6.1494 13.5597,-9.5088 -8.4174,-4.9739 -23.3776,-19.2044 -28.3811,-25.662 -6.4829,-0.5221 -14.0282,-2.038 -19.0633,0.3356 2.1299,4.6052 5.0706,8.749 8.032,12.8472 6.9704,8.5563 14.7645,18.7284 25.8527,21.988 z m 46.0033,-14.1537 c 2.9757,-4.349 11.2981,-5.7843 11.8063,-11.4456 -7.736,0.6736 -20.2062,2.8119 -28.7542,3.3269 l -7.0947,11.51 c 7.1416,-1.4168 18.7122,2.5738 24.0426,-3.3913 z m 49.5108,-7.9885 c 1.631,-5.7418 3.7801,-11.5358 4.2421,-17.5105 -0.2638,-0.2638 -5.5846,1.5322 -11.8241,3.9911 -6.2395,2.4588 -14.5134,5.4075 -18.3865,6.5525 -6.4757,1.9145 -7.1465,2.3706 -8.3401,5.6715 -2.1523,5.4215 -8.1159,7.3063 -12.1179,11.0257 15.4323,-0.7309 31.6806,-4.8656 46.4265,-9.7303 z m -79.2212,8.1294 c 2.4683,-3.6855 9.7935,-10.7557 7.5662,-15.0832 -11.0994,-6.1559 -18.2536,-17.9987 -29.1162,-24.214 -0.5754,6.975 -1.7857,15.0941 0.6301,21.875 5.8174,6.7299 12.9549,13.2971 20.9199,17.4222 z m 50.0423,-18.9846 c 5.0021,-1.5568 6.6354,-2.6003 8.1676,-5.2183 2.2745,-4.7785 6.1843,-9.145 7.3148,-14.3756 -0.2665,-0.2665 -4.9273,0.4025 -10.3573,1.4866 -5.43,1.0842 -14.1516,2.2743 -19.3814,2.6448 l -9.5087,0.6736 c -3.4938,6.7707 -7.4217,13.3424 -10.4826,20.3242 11.2708,0.7729 23.351,-2.632 34.2476,-5.5353 z m -39.5088,0.01 c 1.9268,-3.2047 9.8694,-11.4506 8.1689,-14.7256 -20.2053,-8.4054 -31.1882,-28.5216 -31.1882,-28.5216 -5.4979,0.5456 -11.0644,0.7475 -16.4316,2.1092 2.5084,13.826 28.1016,33.7139 39.4509,41.138 z m -35.6142,-25.1724 -8.3123,-12.2879 c -6.7175,-9.9303 -8.4964,-11.976 -9.2718,-10.6622 -2.2577,6.9619 -1.6096,13.9237 -1.7635,20.8856 5.2546,8.285 10.2849,16.7195 17.723,23.5488 z m 44.9947,5.1748 c 1.0302,5e-4 2.6017,-2.2644 4.3197,-6.2259 1.7028,-3.9263 2.2973,-6.3612 1.6091,-6.5906 -8.7728,-4.5663 -15.8534,-11.6255 -22.7806,-18.5522 -8.5482,-8.8061 -10.8412,-10.6284 -13.9953,-11.1229 -3.0489,-0.2266 -6.2995,-1.5773 -9.2722,-0.9345 9.9389,17.5196 21.2972,35.1664 40.1193,43.4261 z m 23.1117,-1.4151 5.9532,-10.8655 c -5.5846,2.518 -11.8562,0.3322 -16.7035,2.6395 -0.7669,1.8354 -2.569,6.3449 -2.9681,7.6023 -0.202,2.4369 11.1419,1.328 13.7184,0.6237 z m 6.1326,-0.072 c 7.1045,-1.7009 14.3535,-2.9359 21.2775,-5.2918 l 4.2208,-11.1183 c -7.1443,2.8562 -14.8217,3.9668 -22.1986,6.068 -0.7397,2.0716 -6.9772,10.9802 -3.2997,10.3421 z m 16.6358,-19.1037 c 2.4366,-4.8623 4.0945,-10.2437 4.2745,-16.6104 -9.6776,5.5789 -19.7446,10.3605 -30.8322,12.202 -3.6162,0.6235 -2.5143,1.042 -4.4361,8.4008 8.658,0.4486 24.1629,0.2791 30.9938,-3.9924 z m -37.9034,3.5916 c 1.7364,-2.9833 2.7032,-6.9079 2.7667,-10.3919 -19.4619,-8.9812 -28.504,-28.2963 -37.5328,-48.1526 -0.5228,1.375 -2.3967,7.35 -2.7821,10.1678 -0.5934,19.5137 22.3029,39.7323 37.5482,48.3767 z m 59.8829,-14.5015 c 2.005,-7.4127 1.8694,-17.0006 0.7434,-24.6294 -5.1542,7.7902 -11.1588,12.6351 -14.7219,15.6985 -0.1023,4.7177 -1.7812,13.6809 -2.9896,18.1824 6.0474,0.3946 13.1483,-4.8387 16.9681,-9.2515 z m -104.3276,2.6315 -21.9291,-37.4474 c -4.6048,4.4356 -2.7182,17.9591 -3.9372,27.1348 l 9.3182,14.4046 c 2.5685,-0.7752 19.2917,0 16.5481,-4.092 z m 72.8866,-10.5341 c 0.5052,-3.9138 0.6001,-8.0741 -1.212,-11.5959 -3.9692,2.7529 -7.5826,8.5662 -15.0652,9.9173 l -2.0306,11.323 c 6.9386,-1.0817 16.8288,-1.4274 18.3078,-9.6444 z m -22.6562,-1.3764 c -2.7354,-6.4543 -8.5244,-15.1242 -13.8816,-20.2195 -1.3542,6.1427 -3.3306,15.0082 0.9817,20.319 l 11.5182,8.7964 c 0.752,-2.9187 1.2038,-5.888 1.3817,-8.8959 z m 46.1183,-10.3103 c 0.8397,-13.8792 0.7761,-26.8552 -7.2936,-31.8251 -2.9709,9.1785 -8.6521,20.0027 -14.5127,27.743 1.8194,4.5676 2.934,10.0161 1.7578,18.3281 z m -89.8149,4.9661 c 1.3874,0.1027 1.0085,-1.3328 -2.1446,-8.1253 -5.0208,-7.0423 -4.31,-18.2885 -10.6438,-24.4096 -5.0778,-2.3096 -10.623,-4.2148 -16.1823,-4.8882 -0.1728,0.1729 0.6487,3.1794 1.8257,6.6811 3.7106,9.35 7.8599,18.7002 13.2401,27.2353 3.8676,2.9283 9.2075,2.9872 13.9049,3.5067 z m 51.9076,-0.3868 c 5.3807,-3.2707 9.594,-7.8715 13.4624,-12.7736 4.1101,-5.7719 8.1482,-11.816 10.4449,-18.5685 -3.3344,-0.2959 -9.7852,1.554 -13.3272,1.85 -4.228,3.0701 -4.1022,6.855 -9.8246,11.0415 0.5959,3.6309 -3.3466,16.8162 -0.7555,18.4506 z m -26.9954,-1.4885 c -0.3086,-4.8148 -0.6775,-9.3761 1.2427,-13.9798 2.4069,-4.4154 -1.4169,-9.574 -4.6208,-12.359 -1.7643,4.6878 -3.3729,9.5772 -3.7192,14.6068 0.7325,4.4623 3.5944,8.9102 7.0973,11.732 z m 21.1681,-18.3679 c -6.9574,-1.0862 -5.5723,-10.5894 -22.1136,-14.9699 5.5814,10.005 11.8786,21.4419 18.6862,30.6982 5.1388,3.5555 3.3543,-9.9403 3.4274,-15.7283 z"
       inkscape:connector-curvature="0" />
    <path
       id="ven3"
       d="m 1934.4839,1303.878 c -1.5125,-0.017 -6.3005,-2.0523 -10.6399,-4.5231 -4.7469,-2.7028 -8.0168,-5.8869 -9.0817,-5.5489 -2.0298,0.7208 -6.218,4.4083 -8.0784,5.3339 -0.8294,0.3468 -0.1839,-2.3764 -0.1839,-3.1614 2.1573,-1.6369 4.0577,-3.5308 6.4927,-4.8902 l -2.6782,-4.6728 c -1.4372,-3.1392 -4.0214,-10.9723 -3.8177,-12.5215 0.3172,-2.4127 2.7785,1.6548 5.8851,8.2055 1.9562,4.125 4.4106,8.5639 5.4543,9.4403 5.9523,4.7778 5.0761,1.1246 19.3977,11.9213 0,0.2462 -1.2375,0.4338 -2.75,0.4169 z m 59.873,0.031 c -11.7192,-8.523 -22.8562,-17.511 -34.1826,-26.2971 -8.6214,-6.6321 -17.8664,-12.273 -20.4032,-13.2418 -3.8338,-1.4642 -6.9051,-2.8276 -17.056,-2.3848 -6.7168,0.293 -14.9712,0.7854 -15.6587,0.5292 -0.6875,-0.2562 -0.7876,-2.3748 -0.7876,-3.1539 0,-1.1038 4.7017,0.036 11.9087,-0.1408 5.0875,-0.1248 10.7675,-0.4604 13.7526,-0.322 5.103,0.2365 5.5694,0.9547 4.1667,-0.714 -8.0099,-8.9188 -15.8471,-19.8332 -22.8449,-29.5556 -1.9109,0.7528 -5.5513,2.6829 -6.9831,0.982 0.372,-2.8317 8.4749,-1.5447 3.9416,-5.9718 -1.083,-1.7762 -4.0515,-5.6904 -4.0536,-6.7203 0,-1.5034 -0.5333,-3.7211 0.6057,-2.7757 0.7803,0.6476 6.0997,7.8893 8.2886,11.5715 6.7028,11.1556 15.033,21.1727 23.9613,30.5978 4.2468,4.3464 12.3114,10.7131 17.7801,14.8547 13.0756,11.1172 27.8893,20.8839 40.3662,32.7091 0,0.2727 -1.7695,0.034 -2.8018,0.034 z m 20.9358,0.578 c -13.3436,-20.9287 -27.749,-45.9666 -43.3126,-62.8454 -24.4663,-14.954 -40.2066,-11.7215 -66.1737,-40.3457 2.9111,-1.6395 12.2683,8.4269 15.6387,10.6131 -0.9003,-5.3047 -2.8459,-10.4816 -4.2156,-15.7172 -0.6491,-5.1272 -7.0816,-6.8304 -9.9826,-10.1395 -0.2924,-0.762 -0.7371,-3.2608 -0.4231,-3.5748 l 9.5381,6.6738 c -1.8599,-8.3181 -8.0814,-15.721 -10.2087,-18.398 0,-1.4452 -0.5749,-3.1009 1.4441,-1.2042 10.7792,9.4679 10.8114,16.7983 12.4976,24.6707 1.1009,5.3893 3.3292,12.6354 4.9516,16.1025 1.7681,3.7784 4.6463,7.0871 6.6654,8.605 11.1578,6.1349 19.6773,9.3351 32.0092,15.1623 4.1713,2.3135 9.6021,5.6761 8.9699,3.6843 -2.4762,-9.2956 -4.9495,-18.5661 -8.9018,-27.3649 -1.881,-3.85 -4.6879,-8.2084 -6.2376,-9.6852 -1.5498,-1.4769 -7.3053,-6.6135 -13.7021,-9.822 -10.4921,-7.8444 -20.8395,-11.3668 -30.4018,-18.4022 -2.3161,-1.6998 -7.4317,-5.6295 -7.4531,-6.592 -0.022,-0.9625 -0.013,-2.4005 0.3643,-2.4005 l 12.9132,9.657 -2.122,-4.8776 c -1.1671,-2.6826 -2.7307,-6.565 -3.4748,-8.6275 -1.2511,-3.4682 -2.1736,-7.6572 -0.4652,-7.6572 1.1847,0 3.0493,4.8935 3.4826,6.6572 0.3717,1.5125 2.2222,5.981 4.1124,9.93 4.5852,10.1749 11.7599,10.5453 25.1536,20.32 -4.3972,-8.1909 -10.8715,-19.6567 -16.4515,-24 -5.4308,-6.3126 -9.5176,-13.3039 -8.3056,-13.5601 0.9571,-0.2023 6.0944,6.3738 8.7002,9.2151 l 4.4432,4.845 c -0.02,-2.573 -1.7923,-13.7431 0.756,-14.0318 1.1999,0.231 2.3026,6.0444 2.4147,11.3915 0.072,3.5086 1.9531,8.6517 3.3845,11.4864 4.0369,8.6269 10.1457,15.7272 17.1218,22.1163 4.359,3.7043 7.1108,9.3636 8.5488,12.2066 5.0494,10.8089 6.7764,22.8139 11.3879,33.7785 6.2572,10.0695 29.896,42.0484 40.6624,62.1914 0,0.4751 -2.5787,-0.061 -3.3284,-0.061 z m 24.6348,1.1117 c -12.5709,-33.3256 -27.065,-72.1336 -48.6675,-104.0027 -7.6911,-8.1645 -17.0918,-14.3233 -26.8527,-19.712 -3.9638,-2.0896 -7.9135,-5.2287 -10.5756,-8.4052 -2.337,-2.7884 -5.3279,-6.6448 -6.6465,-8.5698 -1.3185,-1.925 -3.422,-4.3202 -4.6744,-5.3226 -1.2523,-1.0024 -3.2406,-7.2486 -3.2406,-7.6837 0,-0.4351 4.6538,4.9677 4.9878,4.279 1.1959,-2.4662 3.6632,-5.1575 3.2461,-3.7102 2.6516,14.6052 6.5953,15.5867 9.5392,19.8197 0.537,0.3319 0.1246,-2.1334 -0.9165,-5.4785 -1.0411,-3.345 -2.2612,-13.3847 -2.2612,-14.7107 0,-1.326 1.39,-0.09 2.105,-0.09 2.1681,6.7905 1.7551,13.9746 5.9012,21.5944 1.3519,2.8588 1.4649,2.9266 4.5924,5.6863 8.1681,4.1052 14.7787,8.2704 21.599,14.3388 l 5.9678,6.3753 -1.9388,-7.2991 c -1.0664,-4.0145 -2.4582,-12.175 -3.093,-18.1345 l -1.1542,-10.8353 -7.0556,-3.6432 c -6.1524,-3.1769 -10.4688,-7.7152 -8.137,-8.0034 4.9728,1.3232 8.3565,6.2704 15.0416,7.8173 0.2969,0 0.3772,-7.3491 0.3772,-8.4491 0,-1.1 1.3689,-0.1249 2.1055,-0.1249 1.0041,0 1.0156,8.1408 1.8541,18.824 0.6151,7.8375 2.0363,17.8051 3.1582,22.1502 13.5485,37.6349 24.3724,43.8648 47.7346,113.3727 0,0.7287 -1.5877,-0.9281 -2.9961,-0.083 z m 18.082,-45.6773 -0.8675,6.5982 c -11.5031,-37.6225 -14.5462,-56.3988 -22.4762,-69.713 -9.1533,-12.3907 -13.4265,-17.1934 -31.8223,-33.3297 -5.3749,-5.2407 -9.8242,-11.6083 -8.5231,-11.8999 1.0434,-0.2338 1.4853,-0.3868 3.4155,1.8117 2.3721,2.7016 8.0193,9.3035 8.6375,8.3287 0.4564,-0.7196 1.3891,-8.7526 1.3976,-9.9901 0.01,-1.4102 1.7819,-0.2848 2.8072,-0.2848 l -1.3654,13.8993 c 16.1606,12.7367 19.7333,19.9153 26.5546,26.0672 -1.2796,-5.0313 -3.1991,-21.544 2.118,-40.5634 1.4994,-0.2852 3.5471,-0.9755 3.0293,0.3419 -2.8272,10.4465 -3.9761,24.1144 -2.7302,34.7963 0.6743,4.6115 3.0024,13.9789 5.1736,20.8166 4.4633,15.7113 12.753,37.8855 14.6514,53.121 z"
       inkscape:connector-curvature="0" />
    <path
       id="ven4"
       d="m 1378.3464,1567.1388 c -1.2442,0 -3.0688,0.2265 -3.7535,-0.5985 -0.6847,-0.825 -3.5166,-4.4603 -4.484,-4.4603 -0.9674,0 -3.8559,-1.3879 -5.5144,-3.0842 -4.2795,-6.9154 -6.6104,-14.9082 -10.11,-22.2755 -1.8545,-3.7728 -5.8399,-10.6068 -5.8399,-11.4039 0,-0.7971 0.46,-1.165 1.0223,-0.8174 0.5624,0.3475 4.8908,6.5005 6.6021,9.8908 3.8174,6.8194 5.6111,14.5928 9.4129,21.405 1.7337,2.0159 6.2052,6.5279 3.8725,0.7999 -0.8057,-1.9281 -2.8832,-6.8353 -3.7124,-10.0003 -0.8291,-3.1649 -3.4842,-23.5946 -6.5033,-44.4946 -3.0191,-20.9 -6.1688,-39.855 -6.8171,-44.0198 -1.7792,-11.4306 -5.0857,-13.2787 -4.5329,-12.7127 l 1.3367,-6.7285 c 9.7246,16.5632 7.2572,20.5262 13.5472,59.9742 5.9274,43.0338 5.5491,47.7304 15.4738,68.5258 z m 13.802,0 c -4.5684,-3.5298 -6.2889,-9.3267 -7.925,-14.5588 -1.1537,-3.85 -4.1239,-18.925 -6.6005,-33.5 -2.4766,-14.575 -4.7874,-30.1 -5.1351,-34.5 -0.3895,-4.9288 -1.9438,-11.9662 -4.0489,-18.3313 -1.8792,-5.6822 -4.2283,-13.1124 -4.5487,-16.7802 -0.3205,-3.6678 -0.834,-8.2385 -1.8127,-9.8885 -3.9607,-7.0288 -6.7233,-15.771 -8.1735,-24.2568 0,-1.0884 1.4069,-0.1111 1.9179,-0.1111 1.4867,1.6579 6.3531,23.3294 7.6345,17.8679 0.6645,-5.8893 1.2749,-11.8916 2.9586,-17.6987 0.314,-0.8183 1.3405,-0.1692 2.4153,-0.1692 1.7787,0 1.332,2.2949 0.5936,6.6179 -4.7065,26.7324 -0.092,36.5712 4.3341,46.75 l 2.5732,-5 11.2815,-14.8755 -0.3577,-15.8959 -0.5645,-18.2655 4.6965,0.1783 c 1.6399,20.0249 -0.012,40.6041 3.8147,60.3586 0.4569,0 1.3353,-1.6875 1.9521,-3.75 0.9914,-18.0813 0.5111,-38.3416 0,-55.794 0.5358,0.1791 2.3081,-1.3195 2.7297,0.5644 0,0 1.5205,44.2188 0.6415,53.9979 0.2625,4.2378 9.3322,17.7728 15.81,23.4817 l -0.6372,-12.5 c -0.6172,-17.2086 -3.9161,-38.5074 -6.0173,-65.7507 l 5.6864,-0.1452 c 0.7168,16.7578 4.9397,30.3946 6.2193,69.7504 l 2.166,68.6455 c 5.0556,-9.3445 8.5882,-19.0448 10.472,-29.5 4.5627,-26.9084 -0.2907,-53.8885 -5.5811,-80.2924 -2.4944,-11.9859 -5.6243,-27.7628 -5.6243,-29.1144 1.6468,-0.2862 2.8579,-0.7042 4.2869,0.3485 0.3274,2.0625 3.4547,17.0411 5.3522,26.1867 1.7115,4.8742 1.5049,14.349 4.372,17.4198 2.823,-5.0318 4.3655,-10.8882 5.4662,-16.5482 0.3044,-1.925 0.6106,-7.55 0.6802,-12.5 0.07,-4.95 -1.4246,-13.5629 -1.8121,-14.5254 1.65,-1.4588 4.9738,-1.7912 5.2447,-0.029 0.6185,2.0643 4.2241,18.5601 6.415,29.5583 2.191,10.9981 4.4659,23.9104 5.0554,28.6939 0.6233,5.0581 2.0834,10.8808 3.4895,13.9158 2.1311,4.5998 2.4767,4.9321 2.9149,2.8027 0.2734,-1.3287 1.4464,-8.789 2.6066,-16.5784 2.0211,-13.5699 2.0416,-14.5533 0.4902,-23.4953 -1.6562,-12.1806 -6.9047,-23.4108 -10.0699,-35.1721 1.9521,-0.23 3.1446,-0.2162 5.1466,-0.2283 3.6209,12.7954 7.6287,25.4598 9.8561,38.5918 3.244,20.7601 3.0986,41.9277 6.009,62.7143 16.3898,-32.6401 10.0148,-69.082 -3.8665,-101.3629 1.7378,-0.7416 3.3278,-0.2186 4.7946,0.8908 6.0973,9.9447 8.0984,21.5663 11.9951,32.3953 2.0908,-10.7552 -0.8767,-22.5594 -2.3589,-33.4119 0.3314,-0.3314 2.4905,0.3109 2.9888,0.8242 1.4397,10.5797 3.6523,22.9679 1.9572,34.0737 -0.6558,3.4814 -1.3033,11.418 -1.439,18.843 -0.2817,17.8053 -2.6984,39.6015 -11.0629,51.1147 -2.7622,4.1045 -3.4327,6.0803 -3.4742,10.2358 0.081,6.5054 -1.3096,12.9321 -1.4578,19.4146 4.4874,-5.3833 7.8714,-11.6953 11.1568,-17.873 3.8081,-7.3772 3.8159,-7.4173 3.8763,-19.8921 -0.013,-12.1481 2.0709,-24.6225 6.9462,-35.8304 1.3787,-2.5386 1.4518,-2.5598 1.4898,-0.4321 -2.9405,13.6892 -7.0305,27.0136 -5.5664,41.1608 1.2237,-1.4402 5.3013,-11.3662 5.5538,-7.7354 0.029,1.4646 -2.7974,8.6646 -6.2808,16 -5.2729,9.6101 -9.3,20.6321 -17.0045,28.7096 -0.9141,0.7548 -1.6645,2.1048 -1.6676,3 -0.6285,4.0279 -1.1188,8.8532 -4.158,11.5847 -1.7374,0 -1.9727,-2.8986 -1.4661,-5.2072 0.332,-1.5125 1.3026,-7.1943 2.1571,-12.6262 0.8544,-5.4319 1.4227,-10.0029 1.263,-10.1576 -6.1256,6.2859 -14.4293,12.3478 -17.0044,21.0888 -0.5214,2.4448 -1.4242,6.9022 -2.0063,6.9022 -0.7052,0 -0.8083,-4.2089 -0.3089,-7.7072 0.4121,-2.8875 1.061,-7.9117 1.4419,-11.1649 0.3808,-3.2532 0.4996,-7.2288 0.2639,-8.8346 l -0.4285,-2.9197 -4.1241,3.9697 c -6.1961,6.9351 -15.2785,9.2109 -22.874,13.9775 -3.2561,2.1655 -3.75,3.003 -3.75,6.358 0,3.5894 1.5223,5.9228 -1.1483,5.9228 -2.4224,0 -4.4538,1.8878 -4.9824,-0.7553 -0.3451,-1.7254 -1.1644,-14.6171 -1.519,-23.221 l -0.6449,-15.6433 c -12.4881,-2.4379 -15.882,-16.4078 -17.4383,-21.7326 -1.1373,7.7114 -1.2908,15.5125 -1.4082,23.2934 -1.4286,22.3536 11.6168,36.6112 11.4249,38.0588 -5.0677,2.1534 -12.5689,-17.1218 -13.9387,-27.4177 -0.3308,-3.3776 -1.4155,-7.4911 -2.4103,-9.1411 -1.4383,-2.1058 -9.9402,-10.6025 -9.5313,-8.5 2.3086,15.9272 2.9777,33.2739 13.3569,45.0588 z m 38.579,-17.0588 c 7.3256,-2.6122 13.8208,-6.8641 19.5059,-12.1266 9.7165,-9.8211 14.0549,-22.8047 12.8771,-36.3734 -0.4136,-3.3 -1.4456,-7.575 -2.2933,-9.5 -2.4365,-6.2848 0.2603,14.4111 -2.7625,23.6528 -5.4158,11.7485 -18.4917,16.3801 -24.557,27.5972 -1.8755,3.7125 -3.1221,6.75 -2.7702,6.75 z m 40.1535,-13.4941 c 2.3216,-3.615 2.563,-4.944 2.5433,-14 -1.2419,-15.6426 0.02,-31.9466 -3.3128,-47.3825 -0.396,-0.7571 -1.2509,2.8429 -1.8999,8 -1.396,17.2466 1.7475,33.0669 -9.9546,51.0019 0.2741,3.87 0.4528,8.3117 0.077,16.0817 4.5017,-4.2736 8.9556,-8.6129 12.5471,-13.7011 z m -31.1642,-7.295 c 5.3298,-3.5424 10.1158,-7.9454 13.3122,-13.5379 3.9152,-11.3636 1.887,-24.4307 1.0269,-36.2231 -0.5813,-7.1224 -2.5465,-20.3749 -4.367,-29.4499 -3.0618,-15.2625 -3.361,-16.1625 -3.9895,-12 -0.5655,9.46 -3.2928,17.6705 -8.47,25.1399 3.4841,20.9014 4.4796,41.7624 1.3001,62.7234 -0.6611,4.0711 -0.5816,4.2953 1.1873,3.3476 z m -44.9474,-14.9134 c 1.1471,-13.6849 1.133,-13.8954 -1.7328,-25.7975 -1.5892,-6.6 -3.4596,-16.9401 -4.1566,-22.978 l -1.2672,-10.978 c -6.9319,7.983 -10.232,16.2911 -10.4912,26.8318 0,4.4683 0.8272,12.8492 1.8272,18.6242 1.0001,5.775 2.8431,12.525 4.0957,15 1.7593,6.5693 6.261,9.7107 10.5683,13.095 z m 21.4014,8.2091 c 0.4084,-8.5974 0.8177,-17.1952 -0.058,-25.1506 -8.3625,-8.246 -14.233,-15.7997 -17.3218,-22.5808 -1.9522,2.2073 -3.1017,4.2526 -2.9908,7.2248 0.3241,1.375 1.6753,6.2999 3.0028,10.9442 3.6958,10.0041 6.2056,25.73 17.3678,29.5624 z"
       inkscape:connector-curvature="0" />
    <path
       id="ven5"
       d="m 1648.0255,1567.8403 c -0.7813,0 -1.6883,0.7454 -1.6849,-0.2171 0.2891,-2.822 1.7789,-10.5396 3.3274,-12.5918 -7.1041,1.2498 -13.9892,3.6891 -21.1789,4.6445 -1.2392,0 -0.2188,-1.9138 -0.2099,-2.6013 8.3654,-3.7983 18.6664,-3.0487 26.7519,-7.6805 3.4424,-3.2135 11.9599,-7.2481 15.4654,-10.5835 -1.0826,-0.2085 -18.2616,-0.078 -20.5326,-0.063 -9.6711,0.065 -14.7918,4.6495 -20.9797,8.662 l -0.541,-6.3201 c 2.5773,-4.8119 14.2114,-8.4646 20.8749,-8.6356 -9.5265,-3.8466 -18.7058,-5.8603 -21.0552,-7.1482 -0.2017,-5.0699 16.8409,1.6613 22.8309,4.9503 5.4338,3.2199 11.5908,1.859 17.7167,2.3116 6.594,0.6017 12.7015,1.3674 13.5721,1.7015 0.8707,0.3341 1.583,0.1623 1.583,-0.3819 -7.9685,-11.4491 -23.5539,-17.685 -36.5,-21.6305 -4.7032,-2.3223 -17.7037,-0.024 -19.2027,-6.122 2.9421,-5.8692 14.9172,0.4622 20.5669,0 -6.2208,-9.8248 -14.0161,-17.1932 -20.5217,-23.4407 0.011,-0.4529 -0.6062,-2.8876 0.4747,-2.4384 8.5082,6.4258 15.9279,14.7593 22.2876,23.3193 2.7312,3.9984 4.3904,5.6107 8.8952,7.0885 17.0414,5.5903 28.2318,18.4926 28.2318,18.4926 -18.9552,-39.6837 -12.8485,-40.0256 -20.2139,-41.0514 -13.3436,-2.5702 -15.5394,-5.425 -38.9623,-21.6685 -1.0109,-0.7781 -0.5115,-2.0367 -0.3256,-2.9351 18.569,11.8374 25.1307,18.0933 40.7193,21.4991 -10.4447,-19.1301 -21.8874,-30.8848 -40.9594,-39.0219 l 0.1681,-5.1856 c 26.439,12.3568 27.2732,17.5093 38.1223,29.8729 0.1219,-18.441 -6.1683,-28.6018 -18.4409,-36.2188 -6.1706,-3.8155 -13.9225,-4.1367 -20.0421,-7.783 0,-0.7348 0.6349,-1.336 1.4109,-1.336 5.5985,0.2317 10.7881,3.23 16.2918,3.6631 -2.4302,-3.9357 -4.7017,-7.9298 -6.7266,-12.1023 -0.4715,-0.8082 -0.09,-1.2496 1.0798,-1.249 1.1655,7e-4 3.9256,4.8155 7.1468,9.8636 2.75,4.3095 6.8865,9.2916 9.1923,11.0714 9.6927,7.6844 12.9243,19.4642 13.3077,31.3482 0,6.0852 3.6821,14.394 7.2114,20.8246 4.4295,9.4585 7.1459,20.6068 13.2886,31.857 l 0.1613,-20.7194 c 0.089,-11.3957 0.663,-27.2337 1.2764,-35.1956 1.0294,-13.3642 0.9786,-14.6433 -0.6613,-16.6523 -4.1795,-4.6662 -7.5163,-10.3415 -12.6368,-14.0846 -10.5189,-4.6114 -22.7865,-6.5413 -28.1475,-17.9627 -0.1804,-0.9364 1.4589,-0.3512 1.991,-0.3512 5.9876,7.7299 14.9429,11.1958 24.0931,14.027 0.8695,-3.5054 -3.5078,-10.1681 -3.0467,-13.7558 0.1051,-0.8172 1.4015,0.406 2.0014,-0.2712 3.4586,4.7176 4.054,11.2179 7.1275,16.4749 2.7902,4.291 5.6379,8.582 9.8416,12.873 1.3509,-5.4029 1.2728,-11.0375 1.3817,-16.5709 l -0.2195,-12.777 5.8051,0.09 c -0.5509,13.4992 -0.047,25.1527 -1.6526,40.4978 18.616,-21.0247 17.5254,-27.8103 13.2474,-40.2093 -0.6771,-1.9626 2.0417,0.4103 1.8576,-1.1 5.2624,5.749 4.5063,17.0484 2.149,23.8944 -1.442,3.8141 -4.5209,8.3448 -9.4891,13.9636 -6.5573,7.4161 -7.4183,8.8636 -7.9432,13.354 -0.3238,2.7699 -0.8704,14.0363 -1.2146,25.0363 l -0.6258,20 4.4064,-8.5 c 2.4235,-4.675 8.887,-14.9104 13.9678,-23 5.1995,-8.2786 11.276,-16.7392 15.1028,-19.7188 4.1594,-3.2386 6.5231,-7.3489 8.7344,-12.1464 2.131,-4.6232 2.966,-7.6433 2.5103,-9.0792 -4.3841,-7.9848 -11.2165,-14.0035 -13.2162,-23.0989 0,-0.5861 1.0054,0.016 1.7933,0.016 3.8026,6.1271 7.5562,12.7455 12.992,17.8603 0.9996,-3.7766 0.6657,-14.1581 0.5306,-17.5197 -0.045,-1.1147 1.6066,-0.5279 2.2866,-0.6111 2.672,12.6576 1.7174,24.9161 -4.904,35.8756 0,0.1851 2.5875,-1.1575 5.75,-2.9836 3.1625,-1.826 7.9111,-4.5396 10.5525,-6.0302 2.8384,-1.6018 5.2167,-3.7997 5.8154,-5.3744 0.5571,-1.4653 1.2754,-6.3825 1.5961,-10.9271 0.4527,-6.4147 0.5804,-10.2898 1.7437,-10.2898 1.2658,0 1.7482,3.5016 1.2694,11.527 -0.3117,5.225 -0.3954,9.5 -0.1858,9.5 0.2095,0 2.8883,-2.0423 5.953,-4.5385 3.0646,-2.4962 8.0341,-3.9319 8.5659,-3.6032 0.5317,0.3286 0.9668,1.6969 0.9668,3.0406 0,1.8232 -3.5015,3.183 -7.8388,6.3532 -15.9039,10.641 -33.7775,17.8835 -47.0003,32.0855 l -3.3121,4.6624 c 7.6414,0.3141 15.7364,-0.2932 17.21,-1.1782 5.5099,-3.5254 12.2101,-10.2175 17.7229,-13.7194 1.2016,-0.6431 3.1017,-2.9665 4.2223,-5.1631 3.7932,-6.1557 9.9726,-10.8012 17.0994,-12.0376 0.4931,0.3048 0.8966,0.8996 0.8966,1.3218 -5.2431,2.9348 -10.4903,5.9369 -14.4823,10.5206 1.7504,0.5428 8.5634,-1.6763 13.6615,-1.5234 0.8086,0.024 -0.07,1.8295 0.6175,2.2269 -5.5624,1.686 -11.3195,2.4357 -16.689,5.0756 -8.0173,4.318 -5.3175,1.8981 -21.8015,16.1109 -2.4172,1.888 -13.1536,0.9749 -20.116,1.3659 l -7.1185,10.9172 c -3.9152,6.0044 -8.6549,14.2169 -10.5327,18.25 -1.8777,4.033 -3.7223,8.8559 -4.0991,10.7175 l -0.685,3.3848 c 8.071,-6.9557 17.2633,-12.1647 27.2662,-15.7855 6.2638,-2.0861 8.5968,-3.4599 11.8281,-6.9655 2.2139,-2.4018 5.822,-7.9404 8.0179,-12.3079 6.5086,-14.9339 18.5614,-23.4179 33.5739,-19.5338 0.8389,0.3219 1.3019,1.1676 1.0288,1.8793 -20.8385,-1.6619 -28.3962,11.2352 -31.4651,18.302 9.8416,-3.6039 20.1183,-5.5622 30.2453,-8.0613 1.2267,-0.4717 1.75,-0.185 1.75,0.9587 0,0.8975 -1.2375,2.1087 -2.75,2.6917 -10.0551,3.4417 -24.1466,2.5854 -32.277,10.462 0,0.4019 -1.6588,2.6687 -3.6862,5.0373 -2.7173,3.1746 -3.1773,4.1462 -1.75,3.6969 1.0649,-0.3353 4.3601,-1.0672 7.3227,-1.6265 2.9626,-0.5593 11.1751,-1.0169 18.25,-1.0169 l 13.877,0.6757 v 2.5 c 0,2.4972 -1.0246,1.8243 -10.8468,1.8243 -5.4083,0 -10.1216,0.2883 -10.474,0.6406 3.0066,2.9237 7.7014,4.9145 9.5504,8.6077 2.7559,3.438 7.2917,4.3444 11.1076,6.1716 0.4604,0.2648 0.4051,0.9135 -0.1228,1.4414 -5.1108,0.6442 -12.0639,-3.1337 -13.3997,-5.76 -1.7201,-2.7711 -4.7023,-5.7414 -15.446,-9.9372 -11.9288,-0.6257 -50.066,12.768 -50.1245,27.4269 0.2061,0.2061 1.917,-0.068 3.802,-0.6081 11.0322,-2.8833 21.9542,1.4573 32.9403,1.9777 12.1658,-1.5171 34.7253,-5.8861 43.4911,-4.2972 -0.2256,0.6875 1.1836,2.4943 -0.6991,2.6369 -9.9784,1.4567 -24.9594,2.0357 -34.792,4.3449 14.9402,8.3339 20.7509,6.4473 34.4919,15.9955 0.3378,0.5465 0.6694,2.7126 0.076,3.8218 -5.542,-1.3651 -12.3116,-4.7853 -17.1415,-6.2221 0.4543,3.4094 4.8594,14.0627 4.558,17.7848 -0.068,0.8424 -1.4503,-0.1144 -2.0784,0.5134 -3.5033,-10.4236 -3.6217,-13.2314 -6.8492,-17.6606 -2.1774,-2.6365 -4.965,-4.3536 -10.2446,-6.3106 -13.6001,-3.9284 -30.5923,-11.6317 -44.8472,-6.0492 -1.6148,0.835 -3.1821,2.5225 -3.483,3.75 -0.4831,7.7292 1.0154,18.147 0.7206,25.8811 -2.5664,0.4974 -7.8371,1.1758 -9.5722,-0.3279 -0.9053,-9.261 -0.6931,-23.4768 -11.172,-27.0288 -9.6433,1.9884 -19.935,8.1689 -26.8448,15.2549 -2.8127,2.645 -2.406,9.9876 -5.5536,12.1304 z"
       inkscape:connector-curvature="0" />
    <path
       id="ven6"
       d="m 1932.4204,1415.3168 c 0,0 -3.739,18.2232 -5.375,30.8438 -1.6359,12.6204 0.021,28.2831 2.125,39.9687 2.1035,11.6856 6.758,37.1454 9.5624,55.375 2.8046,18.2295 5.375,25.4687 5.375,25.4687 l 3.0626,1.1876 c 0,0 -3.7581,-7.9471 -6.5626,-27.8126 -2.8044,-19.8655 -4.9063,-29.2187 -4.9062,-29.2187 0,0 -7.4837,-40.4215 -7.25,-56.7813 0.2337,-16.3597 6.5624,-38.5625 6.5625,-38.5624 z m 45.8124,0.2188 -3.9687,0.25 c 0,0 -0.2447,0.445 1.625,8.625 1.8696,8.1799 0.9362,35.7779 0.4687,62.1874 -0.4673,26.4095 -3.7161,45.3307 -2.7812,57.25 0.9349,11.9194 0.9375,23.3751 0.9375,23.375 l 4.1875,0.4688 c 0,0 -2.0885,-26.171 -0.2188,-47.9062 1.8697,-21.7353 3.0448,-52.8272 2.3438,-74.5626 -0.7011,-21.7352 -2.5938,-29.6874 -2.5938,-29.6874 z m -62.1562,0.25 c 0,0 -1.8626,15.4244 -3.0312,27.3437 -1.1685,11.9193 0.9129,28.9619 3.25,48.5937 2.337,19.6319 2.3354,24.3234 4.9062,44.6563 2.5709,20.333 7.7188,31.3125 7.7188,31.3125 l 4.9062,0.9375 c 0,0 -2.0855,-5.8416 -4.6562,-16.125 -2.5708,-10.2833 -5.163,-29.2269 -7.5,-48.625 -2.3372,-19.398 -4.1875,-35.75 -4.1876,-35.75 h 0.2188 c 0,0 0,-0.011 -1.4062,-14.9687 -1.4024,-14.9575 4.6874,-36.9063 4.6874,-36.9063 z m 106.3438,0 -2.3438,0.4687 c 0,0 1.3992,2.8025 4.4375,10.2813 3.0382,7.4788 5.1577,23.3469 5.625,35.5 0.4675,12.153 -4.9293,30.3799 -7.5,37.625 -2.5709,7.245 -3.0379,15.9112 -5.375,23.1562 -2.3371,7.2451 -7.2268,24.5212 -10.0313,32 -2.8045,7.4788 -6.0938,12.875 -6.0937,12.875 l 2.5625,0.2188 c 0,0 0.7117,-0.9399 3.75,-7.25 3.0382,-6.3104 5.394,-13.0649 6.5625,-19.375 1.1686,-6.3104 5.1356,-14.7379 8.875,-32.5 3.7394,-17.7622 7.9264,-27.5693 9.5625,-46.5 1.6359,-18.9308 -10.0312,-46.5001 -10.0312,-46.5 z m 13.3124,0 -4.9062,0.6874 c 0,0 1.6479,1.6422 4.2188,7.7188 2.5707,6.0765 3.5014,19.6172 3.9687,33.4062 0.4674,13.789 -7.9468,72.9408 -11.2187,85.0938 -3.272,12.1531 -14.5,24.2812 -14.5,24.2812 l 6.0937,0.25 c 0,0 1.3385,0.5526 10.9687,-17.5312 3.7338,-7.0114 13.2299,-69.1681 12.8438,-95.3438 -0.3862,-26.1729 -7.4687,-38.5625 -7.4688,-38.5624 z m -84.125,0.2187 -4.4374,0.25 c 0,0 1.4048,16.123 0.9374,26.4063 -0.4673,10.2833 -1.8748,33.1757 -1.875,45.5624 0,12.3868 2.3314,26.6366 3.5,36.2188 1.1686,9.5822 0.2173,17.0687 -0.25,24.7812 -0.4673,7.7125 2.1251,18.0001 2.125,18 h 4.6563 c 0,0 -1.4074,-5.1599 -1.875,-11.9374 -0.4674,-6.7777 0.9362,-4.6634 0.4687,-18.2188 -0.4675,-13.5553 -4.674,-40.442 -5.375,-53.0625 -0.701,-12.6204 2.3615,-29.2071 3.0626,-41.5937 0.701,-12.3868 -0.9375,-26.4063 -0.9376,-26.4063 z m 3.9688,0 c 0,0 -0.9497,11.689 0.2188,28.75 1.1685,17.061 0.7024,21.9663 0.4687,37.625 -0.2337,15.6587 -0.9185,26.8932 0.25,38.8125 1.1685,11.9194 0.7038,26.6299 0.9375,33.875 0.2337,7.2451 2.5625,12.1563 2.5625,12.1562 l 3.0313,0.6876 c 0,0 -4.655,-9.818 -4.1876,-28.2813 0.4674,-18.4633 -3.0585,-34.1266 -1.6562,-51.1875 1.4023,-17.061 1.8711,-28.4923 0.4688,-42.2812 -1.4023,-13.789 0.2499,-29.9063 0.25,-29.9063 z m 37.375,0 c 0,0 0.01,2.3349 2.3438,10.2813 2.3371,7.9462 3.2812,29.9322 3.2812,44.6562 0,14.7238 -4.4551,50.4588 -5.1562,57.9375 -0.7013,7.4788 -2.5638,15.2127 -3.0313,24.0937 -0.4674,8.8811 -3.2812,13.7812 -3.2813,13.7813 l 2.3438,0.2187 c 0,0 1.1901,-3.0132 2.125,-7.6874 0.9348,-4.6742 1.3912,-13.3205 1.625,-16.125 0.2338,-2.8046 6.3165,-43.9682 7.7188,-71.3126 1.4023,-27.3442 -5.6249,-55.5937 -5.625,-55.5937 z m 55.4062,0 -2.5624,0.25 c 0,0 4.6739,24.2946 5.375,28.9687 0.7011,4.6743 -1.1751,51.8863 -2.3438,66.8438 -1.1686,14.9575 -4.4441,24.9874 -6.7812,31.5312 -2.3372,6.544 -3.5054,12.4046 -5.375,17.3126 -1.8698,4.9078 -3.2814,5.8436 -3.2813,5.8437 l 2.3437,0.4687 c 0,0 8.8707,-16.3519 12.8438,-35.75 3.9731,-19.398 4.6874,-64.049 4.6875,-81.3437 0,-17.2947 -4.9063,-34.125 -4.9063,-34.125 z m -83.4374,0.25 c 0,0 -0.015,16.8004 0.2187,34.5625 0.2337,17.7621 0.4851,45.8091 0.7187,55.625 0.2337,9.8159 -0.6888,12.4051 -1.1562,28.5312 -0.4674,16.1263 1.3749,32.2501 1.375,32.25 l 2.5938,0.4688 c 0,0 -1.6427,-13.3338 -2.3438,-20.8125 -0.7012,-7.4788 0.9239,-29.6682 1.625,-33.875 0.7012,-4.2068 -0.4701,-42.7656 -0.9375,-53.75 -0.4674,-10.9845 0.25,-43 0.25,-43 z m 18,0 c 0,0 1.6414,5.6049 1.875,20.5625 0.2337,14.9576 2.8003,22.8868 3.9687,49.0625 1.1686,26.1758 -8.1874,81.3438 -8.1875,81.3437 l 3.0312,0.9376 c 0,0 6.5638,-58.8996 7.0313,-78.5313 0.4674,-19.6318 -4.2025,-39.7329 -3.9687,-50.25 0.2336,-10.517 -0.9376,-23.125 -0.9376,-23.125 z m 27.3437,0 -4.9063,0.2187 c 0,0 1.8543,4.9188 5.5938,20.3438 3.7393,15.425 0.4797,43.2409 -1.1562,56.5625 -1.636,13.3216 -2.3301,21.0322 -3.0313,26.875 -0.7011,5.8428 -8.6588,25.6925 -9.5937,32.9375 -0.9348,7.2451 -5.375,14.0313 -5.375,14.0312 0.2337,0.2337 3.7552,0.708 5.625,-3.0312 1.8697,-3.7394 2.5485,-3.2837 8.625,-26.1875 6.0765,-22.9038 9.815,-42.3023 10.75,-71.75 0.9347,-29.4477 -6.5312,-50 -6.5313,-50 z m -104.4687,96.75 -0.9376,9.5625 c 10e-5,0 5.1291,29.9318 6.5313,33.4375 1.4023,3.5057 7.0313,10.9687 7.0313,10.9687 l 4.1874,0.4688 c 0,0 -5.3517,-2.089 -8.1562,-11.4375 -2.8046,-9.3485 -8.6562,-43 -8.6562,-43 z m 151.9062,16.125 c 0,0 -1.8655,4.4275 -3.9688,11.9063 -2.1034,7.4787 -9.349,23.1478 -11.2187,25.7187 l 1.875,0.9375 12.1563,-26.1875 z"
       inkscape:connector-curvature="0" />
    <path
       id="ven7"
       d="m 1403.6279,1825.6487 c -22.3898,-9.7249 -26.5945,-1.7724 -54.9918,-18.0176 -0.611,-0.5834 -0.4126,-2.552 0.1984,-3.1336 29.4411,17.6074 49.4977,9.6424 59.5636,20.9074 0,0.4966 -3.5101,0.2791 -4.7702,0.2438 z m 13.8412,1.4502 c -0.2269,0 -6.0707,0.2942 -6.3995,-0.5582 l 1.4481,-21.9681 c -23.6978,-4.3694 -44.8609,-7.6231 -64.1932,-23.7717 -0.23,-0.6964 -0.5907,-3.1503 0.047,-3.1503 20.424,16.3114 65.375,26.4735 65.1033,21.9784 1.267,-7.4226 3.3363,-15.0392 2.8645,-22.5971 -13.9854,-5.0661 -31.4572,-12.9743 -46.2202,-18.9482 -9.0435,-3.6595 -16.8844,-7.3743 -21.7568,-10.409 -0.3785,-0.6092 0.2953,-3.3787 0.8474,-3.3339 19.2473,11.2147 28.9787,13.1586 34.5545,15.591 5.2691,2.2986 17.4592,8.6334 32.8631,13.3915 0.4397,-5.8089 0.3473,-20.0262 -0.78,-23.988 -41.9949,-18.0626 -38.1615,-4.1527 -67.9692,-29.5985 0,-0.7688 0.3606,-2.191 0.6803,-2.191 28.0499,21.8209 42.6794,15.7721 67.044,28.1432 l 1.5178,-19.0492 c -32.9108,-21.995 -48.6709,-20.2561 -69.2421,-49.4097 0,-0.7895 0.476,-2.1294 0.8154,-2.1294 27.7494,31.6454 44.4694,30.6116 68.1159,46.3661 0.5728,-6.959 2.4454,-18.5499 -1.4372,-24.5629 -10.1389,-7.3094 -26.4422,-12.6963 -34.7514,-23.1456 -0.9089,-1.9039 1.5023,-0.958 2.286,-0.958 11.5313,8.9166 23.9608,15.187 35.2317,22.3438 v -13.2443 c -4.3097,-1.7061 -10.4703,-4.3318 -14.3967,-6.8316 -0.3012,-0.4848 2.1539,-0.2864 3.5167,-0.2864 2.9692,0.7022 9.9843,4.4141 10.9792,3.0611 0.1983,-2.9926 0.8316,-3.8544 1.9693,-3.8544 1.1376,0 3.1319,0.5017 2.6686,4.0348 1.5369,1.8985 6.1913,-4.3524 10.5734,-4.4243 2.699,1.4371 -8.802,7.2141 -10.743,8.419 -0.2088,2.5715 -1.6295,12.7012 0.4797,13.662 14.0037,-3.7275 21.9564,-4.3784 50.9281,-20.808 0.9833,-0.5576 3.6503,-0.423 4.6649,-0.4945 -4.9414,6.1803 -32.2358,18.3137 -55.5518,25.713 -2.312,6.8898 -0.9564,14.0332 -1.6629,20.6396 -0.5813,4.2191 -0.4423,4.6997 1.3592,4.6997 29.9973,-4.8412 52.8017,-30.3524 74.9405,-48.762 2.5803,-2.0168 0.6166,1.6253 0.5925,3.3265 -22.5043,20.3683 -41.0292,41.9998 -76.7537,49.2548 -0.1286,5.0264 -0.8317,10.125 -0.039,15.1279 0.5707,2.2621 0.643,2.2722 4.891,0.6886 21.2886,-8.6595 55.493,-29.4006 71.664,-38.6562 0.1894,0.8709 0.3877,3.0921 0.1983,3.2394 -25.866,14.1155 -47.5317,29.9198 -76.2055,40.3485 v 24.2209 c 40.5295,-23.2725 63.4829,-29.7418 76.37,-41.8536 v 2.6325 c -6.7315,11.4265 -48.1201,23.3659 -76.5323,44.0524 -0.3851,6.8618 -3.095,15.13 -3.6197,21.9666 4.3277,-1.0917 24.7001,-9.4214 42.6834,-19.0419 17.9421,-9.5986 37.1219,-17.3465 37.4686,-16.4811 0,1.2136 2.631,0.8151 -0.022,2.1617 -6.8735,3.5355 -23.8634,10.697 -35.9625,17.1772 -12.14,6.5023 -27.9881,13.9717 -44.9786,20.4019 -0.9225,4.9526 -1.9313,11.3895 -1.2816,16.4271 24.3436,-17.6827 57.0499,-13.566 81.9463,-30.0487 0.4915,0 0.3979,2.5442 0.3979,3.2936 -15.8439,12.8241 -61.6712,17.0388 -81.2114,32.193 z m 47.1068,-2.0801 c -2.2175,0 -7.8592,0.327 -7.2946,-0.1875 26.5169,-6.9012 29.8289,-11.416 40.8604,-16.8133 0.2517,-0.595 0.4396,0.7357 0.4396,1.5137 -7.7775,7.971 -22.7341,14.6841 -34.0054,15.4871 z"
       inkscape:connector-curvature="0" />
    <path
       id="ven8"
       d="m 1770.4514,1673.0012 c -2.941,4.1428 -5.1846,8.8443 -11,10.6875 -5.073,-1.4711 -11.6965,-1.9776 -19.1875,-1.9375 0.7705,-1.3579 1.7877,-4.8401 2.7187,-7.8437 l -2.8437,-0.2188 c -0.8048,9.0203 -6.3537,13.9256 -13.2813,17.6562 -0.043,-0.504 -0.062,-1.0422 -0.062,-1.625 0,-6.3914 1.2812,-16.3124 1.2812,-16.3124 l -3.5312,-0.3126 c -10e-5,0 -0.9376,6.0697 -0.9376,11.5 0,0.1 0,0.2102 0,0.3126 l -13.8437,-0.063 c 3.4867,-2.2601 3.7846,-5.986 3.375,-10.0624 l -2,-0.5626 c -0.4789,2.4366 -0.076,5.8476 -1.9687,6.75 -2.6852,-2.8174 -5.499,-4.8903 -8.3126,-6.9374 l -2.9062,0.9687 c 3.3325,2.3159 6.9002,4.1564 9.625,7.6875 l -7.0625,6 c -1.8149,-3.3148 -4.0954,-5.5186 -6.2813,-7.9688 1.415,-2.3039 2.4507,-4.5144 3.3438,-6.6874 l -3.125,-0.063 c -3.9283,10.1374 -9.3711,12.8867 -15.4062,12.8126 3.7676,-6.4141 6.9186,-11.5128 6.5312,-12.0938 l -6.0938,-0.625 c 0,0 -2.5537,5.8027 -4.9062,11.25 -2.804,-0.9787 -5.53,-2.2514 -8,-4.3438 0.9348,-2.4251 2.1148,-4.7375 2.3125,-7.5312 l -4.2187,-0.1875 c 0.4933,4.8638 -1.9955,8.4561 -5.75,11.5313 1.0443,-5.9038 1.0938,-11.3769 1.0937,-11.375 l -3.8437,0.3437 c 0,0 0.2512,9.3201 -0.4376,14.0937 -5.0341,-4.654 -8.1667,-9.278 -8.0624,-13.8124 l -2.6563,0.094 c 0.5472,2.2654 1.1184,4.5434 2.4375,6.9375 -1.1539,0.2899 -2.2885,0.5947 -3.7188,0.125 -0.9271,-4.2979 -1.3124,-7.4375 -1.3124,-7.4375 l -2.875,0.3125 c -10e-5,0 0.6422,8.2877 3.3124,17 l -6.625,-2.0312 c 0.9093,-6.4371 -0.788,-10.8696 -2.8437,-15 l -2.4375,-0.2813 c 2.1599,4.281 4.3057,8.5464 3.5312,14.75 l -6.4374,-1.9687 -0.3126,3.5 9.5313,2.625 c 0.6663,4.9926 1.3718,9.93 3.0937,14.2187 -4.6157,-5.5275 -8.7056,-8.4413 -12.2812,-9 l -0.2188,2.2187 c 4.4005,1.1891 7.9849,5.2297 11.5313,9.4688 l -2.5937,5.1562 c -4.2736,-4.35 -9.7189,-9.0312 -9.7188,-9.0312 l 0.3125,3.8438 c 0,0 9.9333,9.912 11.5313,12.4687 0.014,0.023 0.047,0.071 0.062,0.094 -0.7413,1.9124 -1.6912,3.868 -3.0624,5.9063 -2.772,-2.8925 -5.2697,-4.8944 -7.6563,-6.4375 l -0.1563,2.0938 c 2.2466,1.4051 4.5915,3.3731 7.0313,5.9374 l -3.1875,4.2813 c -1.4375,-2.3634 -2.5706,-3.3306 -3.625,-3.9687 l -0.2188,2.3124 c 0,0 2.9702,4.5569 3.1876,8.4688 0.1826,3.2891 6.9173,8.6454 9.1562,10.3438 -0.3978,1.2359 -0.8115,2.9302 -1.2812,5.0624 -5.2327,-3.7374 -8.0977,-5.0928 -11.2188,-6.7187 l 0.375,2.9687 c 3.4386,1.2642 6.8739,3.2391 10.3125,6.1563 -0.5574,2.6366 -1.1602,5.6711 -2.0625,9.9375 -0.1791,-0.2473 -0.3628,-0.4902 -0.5312,-0.75 -4.1545,-6.3916 -8.9688,-8.9375 -8.9688,-8.9375 l 0.3125,3.8125 c -10e-5,0 5.1734,5.6822 8.4063,9.5625 -1.7034,8.2686 -2.7624,16.619 -3.4063,24.1875 l -4.375,-2.9375 -0.625,3.5937 4.6875,3.4063 c -1.0121,14.6323 -0.5314,25.4687 -0.5312,25.4687 l 5.125,0.6563 c 0,0 -1.4873,-8.7843 -1.2813,-21 5.7384,0.9345 10.8553,2.6642 15.2813,5.3437 -3.5324,5.0991 -8.6901,8.0263 -8.9376,14.25 l 2.0938,0.2188 c 0.3974,-3.2057 1.8697,-5.6544 4.3438,-7.4062 1.8263,1.8565 1.3368,5.0634 1.875,7.6562 l 2.8124,-0.094 c -1.1952,-8.373 -4.5199,-9.7801 0.094,-13.0937 4.5255,3.2792 8.2168,7.6955 10.875,13.4687 h 3.8438 c -0.8708,-2.0099 -1.8404,-3.8554 -2.9063,-5.5624 6.4954,-0.8934 13.2922,-2.945 17.5313,4.8124 h 2.9687 c -8.0525,-11.4039 -10.9298,-7.7359 -23.2813,-8.7187 -0.6885,-0.8437 -1.4151,-1.6446 -2.1562,-2.4063 5.4385,-0.075 10.9238,0.231 16,-2.2187 3.6244,3.4313 7.662,6.1775 12.9375,6.7187 l 2.8125,6.7813 3.3438,-0.4063 c -1.886,-1.6724 -3.2774,-3.9253 -4.125,-6.8437 5.0315,-0.2935 8.7428,-1.7287 12.4062,-3.2187 0.6204,0.4488 1.1719,0.8429 1.7812,1.2812 l 0.2813,8.7188 2.2813,0.7812 0.25,-7.4688 c 2.9582,2.1317 5.6118,4.0671 6.8437,5.1876 3.5154,3.1956 9.9136,3.2258 9.5937,2.9062 -10e-5,0 -2.4795,-1.9459 -5.8437,-4.125 1.0111,-2.7417 1.4196,-6.6837 3.7813,-6.7188 5.6562,-0.6904 10.9623,-0.172 14.9687,6.9376 l -1.4063,2.9687 4.5938,0.5313 2.0938,-4.8438 8.7187,5.1562 2.8125,-0.375 -11.5312,-7.8124 0.3124,-6.375 13.0626,0.9374 c 3.7621,2.9021 7.4374,5.7188 7.4374,5.7188 l 6.0626,8.625 1.9062,-0.9688 c 10e-5,0 0.2741,-2.5647 -1.9375,-6.0937 3.4908,-0.3654 7.0649,-0.401 11.3125,2.25 l 0.2188,-3.0625 c -8.5445,-1.5432 -9.6703,-8.3366 -13.5313,-13.1875 4.5496,0.3402 8.8938,1.4158 13.2187,2.5313 l 0.3126,-3.5313 c -3.9624,-0.4693 -7.8346,-1.0032 -12.0313,-1.2813 l 0.4375,-4.0937 c 4.3726,0.5505 7.7495,-1.9035 11.25,-3.9687 l -0.094,-2.9376 c -3.8232,1.9688 -7.6765,5.545 -11.5,4.1876 l -1.6874,-3.1563 c 3.9645,-1.983 6.0064,-6.123 7.8437,-10.5 0,0 0.029,0 0.031,0 2.8148,0.1992 4.7812,0.03 4.7812,0.031 l -0.3125,-3.8438 c 0,0 -3.1896,0.1898 -9.0313,-0.9062 2.0583,-3.3785 2.4959,-7.0725 2.9063,-10.75 4.5997,0.6261 6.7813,0.8124 6.7813,0.8124 l 0.3124,-4.1562 c 2e-4,0 -8.9546,-0.6522 -16.625,-2.25 -7.6698,-1.5979 -10.2187,-2.875 -10.2187,-2.875 -10e-5,0 5.4239,-5.4234 13.0937,-6.0625 7.67,-0.6392 13.75,-1.2813 13.75,-1.2813 v -3.1874 c 1e-4,0 -1.7483,0.013 -4.2812,0.1562 -1.5138,-1.2739 -2.9789,-2.4289 -4.75,-4.2188 l 3.625,-6.7187 c 2.0497,0.9998 5.0938,2.4687 5.0938,2.4687 l 0.3124,-3.5312 c 2e-4,0 -7.5046,-4.6581 -16.3124,-8.4688 5.1162,-4.8491 10.9573,-0.764 16.5,-0.5 l 0.4687,-2.8124 c -4.7374,-0.6815 -7.8479,-1.3805 -11.125,-2.0626 2.8212,-3.1009 3.9743,-6.5014 4.0937,-10.0937 2.0359,0.6718 4.0667,1.399 6.0626,2.2187 l 0.3124,-4.1562 c -1.0939,-0.3317 -2.1864,-0.6354 -3.2812,-0.9375 l -3.4375,-4.8437 6.25,-3.4063 0.094,-2.9687 -8.0624,3.9687 -2.8438,-2.375 6.375,-4.4375 5.0938,3.0625 0.25,-3.9687 -8.625,-3.625 7.9374,-7.0313 0.2188,-5.125 -10.7812,10.4375 -9.7813,-2.0312 c 5.8071,-2.9141 10.9941,-6.8845 14.0937,-14.3126 z m -77.5625,9.6875 c 2.2592,2.0327 4.3305,4.332 5.9375,7.4062 l -6.0312,6.8438 c -2.4562,-0.3883 -4.7468,-0.7278 -6.9063,-0.8438 -5.4776,-0.2882 -10.6416,-0.5117 -11.8125,-0.5624 0.9235,-1.7128 1.8897,-3.3977 2.8438,-5.0626 5.3229,-1.1438 10.6469,0.041 15.9687,-7.7812 z m -43.9063,0.4375 c 1.5302,2.2661 3.8918,4.779 6.125,7.2813 -1.1714,3.313 -3.7962,7.4803 -4.8124,9.0312 -1.0518,-1.8765 -2.0022,-3.7548 -2.75,-5.5625 -1.3986,-3.3799 -2.4676,-6.957 -3.25,-10.1563 1.5237,0.064 3.0869,-0.1188 4.6874,-0.5937 z m 16.2188,0.6875 c 2.747,1.2165 5.372,2.914 7.9062,4.875 -0.096,0.2274 -0.2202,0.4973 -0.3124,0.7188 -1.0025,2.3807 -3.2399,7.0716 -6.2188,12.9687 -3.5721,-3.737 -7.091,-6.1712 -10.5625,-8 0.2641,-0.6158 0.5064,-1.1199 0.7813,-1.7813 0.2394,-0.5746 0.4513,-1.1699 0.6562,-1.7812 z m 81,0.125 c 3.9343,-0.086 7.6693,0.1069 10.75,1.2188 -6.0197,6.5266 -12.1642,14.0375 -17.6875,16.5937 l -9.5937,-4.0313 c 0,0 -1.097,-0.6268 -1.9376,-2.625 4.2963,-3.5651 9.1392,-7.2922 11.2813,-10.8437 2.3915,-0.095 4.8269,-0.2611 7.1875,-0.3125 z m -38.6562,3.5 c 2.6507,0.2153 5.4881,-0.047 7.9062,0.75 l 2.0312,10.875 c -2.0977,0.069 -4.6012,0.075 -7.625,-0.094 -5.7377,-0.3187 -10.2109,-0.9655 -14,-1.5624 2.7439,-4.104 7.1123,-7.1178 11.6876,-9.9688 z m 16.2812,0.5312 c 0.5584,4.8654 2,10.0626 2,10.0626 -10e-5,-10e-5 -1.6843,0.5587 -5.5312,0.875 -1.0968,-4.2655 -2.3587,-8.7482 -1.6876,-10.6563 z m 33.1562,2 c 0.1317,-0.01 0.2688,-0.01 0.4063,0 0.917,0.061 1.9122,0.4421 2.2813,0.4063 3.5203,-0.3406 2.5113,3.0536 2.625,6.6875 0.088,2.8261 -4.3958,7.3072 -6.4376,9.1875 -3.1813,-0.1605 -6.3681,-0.149 -9.5624,0.094 l -3.4376,-2.6874 c 3.6714,-1.8351 10.0168,-10.1955 13.125,-13.3126 0.249,-0.2494 0.6052,-0.3514 1,-0.375 z m 7.3438,1.1876 8.1875,3.1874 -7.375,4.5313 z m -124.125,2.3437 3.875,1.0625 c 0.3913,1.0504 0.7921,2.1069 1.25,3.125 l -3.25,6.5 c -1.1566,-3.2761 -1.5912,-6.9354 -1.875,-10.6875 z m 14.8125,3.1875 c 3.9173,1.4233 7.3972,4.064 10.5,7.75 -1.5686,3.0804 -3.2705,6.347 -5.125,9.875 -0.5019,-0.6297 -4.4099,-5.5758 -8.1563,-11.625 0.7001,-1.4206 1.6249,-3.3961 2.7813,-6 z m 17.2187,2.3125 c 1.1576,0.03 2.7214,0.091 4.6563,0.1875 -0.5546,9.2198 3.4698,13.7791 9.9687,15.4688 0.6004,1.601 0.2986,3.675 -0.9062,6.3124 -2.4912,0.8957 -5.0158,1.5593 -7.4688,2.1876 -1.3306,-0.4667 -2.4295,-0.9738 -3.1562,-1.5 -3.1664,-2.3028 -10.6638,-4.2446 -12.1875,-4.625 3.1492,-5.9911 6.0711,-11.693 8.0313,-15.8126 0.3476,-0.7306 0.686,-1.4727 1.0624,-2.2187 z m 6.625,0.2813 c 2.2876,0.1373 4.8954,0.3407 7.75,0.625 -0.4968,1.7861 -1.126,4.585 -0.9374,7.1562 0.295,4.0315 0.7812,5.1562 0.7812,5.1562 -5.7946,-0.2896 -7.7404,-7.2164 -7.5938,-12.9374 z m 10.2188,0.9062 c 1.8671,0.2092 3.776,0.4289 5.75,0.7188 3.016,0.4413 5.6227,0.7626 7.9062,1 -2.1846,9.9708 -7.4443,14.8588 -13.4687,17.7187 0.2012,-1.3525 0.3497,-3.8093 -0.5625,-5.9063 -1.3275,-3.0482 -1.9212,-7.1457 -0.5938,-10.4374 0.5053,-1.2537 0.8103,-2.2952 0.9688,-3.0938 z m 75.4688,0.4062 c 3.8189,1.86 8.124,4.9047 9.5624,8.4688 -4.7594,-1.1823 -9.532,-2.062 -14.3124,-2.5312 z m -117.6876,0.1563 c 4.9638,9.4765 8.7018,14.0947 11.9376,16.5313 -0.592,1.1167 -1.2378,2.27 -1.8438,3.4062 -2.9682,-2.9917 -5.9462,-5.6042 -9.0312,-7.1875 -0.3216,-4.9808 -1.5698,-7.2534 -2.6876,-9.8437 z m 80.5938,0.125 c 11.1458,4.6231 18.5739,3.2187 18.0312,16.9687 l -23.9374,-0.2187 c 0.4101,-4.4872 -2.3542,-9.9597 -3.8126,-15.0313 z m -21.875,1.2813 c 5.6784,0.4712 8.4375,0.3437 8.4375,0.3437 -10e-5,0 1.6871,4.7686 2.875,9.0313 l -15.3437,1.0937 z m -61.875,4.2187 c 1.3756,4.1847 2.4403,8.8845 0.3438,19.0937 -1.0468,-2.2633 -2.0402,-4.3714 -2.9063,-5.7187 -0.6278,-0.9766 -1.6889,-2.2197 -2.9063,-3.5313 z m 109.2812,2.9375 c 6.4049,-0.1189 12.5336,0.8381 18.4688,2.5625 -0.096,9.2447 -5.553,11.765 -10.6562,14.75 -7.1071,-3.6838 -11.3126,-8.1563 -11.3126,-8.1563 l -0.6562,-8.9374 c 1.3963,-0.13 2.7861,-0.1934 4.1562,-0.2188 z m -35.3437,5.25 c 0.2655,1.2424 0.443,2.3259 0.375,2.9375 -0.3195,2.8762 -4.9687,6.7187 -4.9687,6.7187 0,10e-5 -6.386,2.5707 -14.375,2.25 -4.7287,-0.1891 -10.7854,-0.9474 -15.6876,-2.0624 22.0216,-7.9667 7.5869,-9.2346 34.6563,-9.8438 z m -69.7187,2.1562 c 1.6757,0.1531 4.4123,3.254 7.4062,7 -2.0317,3.7826 -4.0795,7.6069 -6.1875,11.375 -0.076,0.1368 -0.1125,0.2101 -0.1875,0.3438 -1.0393,-1.7577 -2.102,-3.9264 -3.125,-6.125 1.2391,-3.7607 1.7505,-8.1155 2.0938,-12.5938 z m 14.0937,2.4376 c 1.7195,0.7427 3.3465,1.0896 5.0313,1.5624 1.7988,0.5057 4.8088,3.7736 11.2187,6.0626 -2.4058,7.4969 -7.8545,13.3936 -14.625,18.5937 -5.9747,-3.0682 -10.7865,-5.6004 -11.9375,-6.4375 -0.08,-0.058 -0.169,-0.1486 -0.25,-0.2188 3.1736,-5.748 6.9861,-12.8015 10.5625,-19.5624 z m 59.0313,1.5624 11.0312,0.125 c 0.233,5.7006 1.3445,11.5988 -11.9062,14.1876 -4.0894,-5.1419 -5.2188,-8.25 -5.2188,-8.25 z m 14.4687,0.1563 12.375,0.1563 c 0,0 1.0466,1.4293 2.7813,3.1874 -5.2383,3.6612 -10.4937,7.0985 -16,5.375 0.5425,-1.085 0.9036,-6.2761 0.8437,-8.7187 z m -94.75,4.75 c 1.7562,3.6176 4.2531,8.849 6.625,12.5 -3.0791,5.3525 -4.6921,7.7708 -5.7813,10 -2.1533,-1.8038 -7.9998,-6.8831 -8,-9.0313 0,-2.1864 5.3455,-10.6626 7.1563,-13.4687 z m 111.7813,0.3437 c 0.2978,0.2598 0.6186,0.4937 0.9374,0.75 -0.107,3.6896 -0.3494,7.2978 -1.5,10.4688 -3.5093,-0.8315 -6.9384,-1.7763 -8.7187,-4.625 2.2792,-2.1111 4.8065,-4.2405 9.2813,-6.5938 z m -71.2813,1.75 c 2.8609,0.7381 6.286,1.23 10.375,1.3126 0.1812,0 0.322,-0.01 0.5,0 -0.1358,1.7536 -0.5323,3.5453 -1.125,5.0312 -4.121,-0.9011 -8.6076,-0.7201 -13.25,-0.1875 1.6434,-2.0828 2.5488,-4.216 3.5,-6.1563 z m 30.5,0.6563 c 10e-5,0 2.4573,5.5475 7.375,11.5 -0.6217,0.9145 -1.5649,2.0982 -2.8437,3.2187 -3.8435,-1.1924 -7.5839,-2.5242 -10.9688,-4.4062 2.0567,-2.7438 3.6431,-5.8735 4,-10 1.7778,-0.1669 2.4375,-0.3125 2.4375,-0.3125 z m 44.1563,0.125 c 0.7016,0.4335 1.4347,0.821 2.1874,1.1563 1.0653,0.4734 2.7251,1.2695 4.3438,2.0312 -1.6269,3.7403 -3.7727,7.1352 -7.1875,9.5938 l -1.875,-1.125 c 1.0482,-3.4159 2.1154,-6.7647 2.5313,-11.6563 z m -49.5626,0.4063 c -1.208,8.7151 -5.5452,11.7107 -11.625,14.0624 -1.0547,-0.6383 -2.0085,-1.2572 -2.9687,-1.75 1.5387,-4.2934 2.7326,-8.3152 3.5937,-12.125 4.9533,0.043 8.5092,-0.057 11,-0.1874 z m 30.5938,3.1874 c 1.4104,0 2.8047,0.1125 4.2188,0.1563 -3.4907,3.0146 -3.9637,6.8142 -3.0626,11 l -10.5,-0.1875 c -1.919,-1.8273 -3.5657,-3.5186 -4.9687,-5.0938 3.6673,-1.1652 7.1082,-2.8153 10.0625,-5.4062 1.4135,-0.3717 2.8396,-0.4724 4.25,-0.4688 z m 28.1562,0.8126 c 2.4217,1.1545 4.5577,2.2051 6.9063,3.3437 -1.4696,7.411 -6.2141,9.0365 -10.7813,10.9687 -1.3216,-1.4745 -2.647,-3.3679 -3.9687,-3.75 3.3038,-3.0649 5.9799,-6.5382 7.8437,-10.5624 z m -22.9374,2.0937 c 1.9802,2.4621 4.8705,3.9989 8.9062,4.4063 -3.0509,2.4835 -6.5882,3.1678 -10.2188,3.625 -1.5768,-3.7806 -0.291,-5.9856 1.3126,-8.0313 z m -58.6563,0.375 c 2.329,-0.026 4.6827,0.089 7.0625,0.4687 -0.2803,1.3153 -0.8085,2.8675 -1.375,4.4688 -0.1467,-0.029 -0.2869,-0.071 -0.4375,-0.094 -1.6524,-0.2203 -3.2012,0.2795 -4.625,1.0938 -3.3139,-1.2552 -6.5928,-2.6419 -10.375,-2.375 1.1173,-0.8985 2.0881,-1.9586 2.8125,-3.25 2.3164,-0.1265 4.6085,-0.2861 6.9375,-0.3125 z m 20.4375,4.9375 c 2.8542,1.7966 5.9967,3.4026 9.7188,4.6562 -2.0212,1.1072 -4.5604,1.8252 -7.6563,1.625 -4.1375,-0.2669 -6.9782,-1.3216 -9.25,-2.5 2.7938,-0.3685 5.0093,-2.0223 7.1875,-3.7812 z m -31.1562,0.375 c 3.3273,-0.062 6.2508,0.8516 8.9687,2.3125 -1.6942,1.3725 -3.1978,2.8709 -4.5,3.5937 -1.9644,1.0914 -4.7546,2.0127 -6.375,2.5 -1.5071,-0.7637 -3.0332,-1.5487 -4.4687,-2.2812 1.7868,-1.7024 6.2489,-6.2356 6.375,-6.125 z m -22.8438,0.6875 c 0.047,0.041 0.1103,0.087 0.1562,0.125 2.3551,1.9626 5.039,2.9905 8.3126,4.2813 -2.9222,7.5113 -7.2275,14.9947 0.125,22.6562 l -2.8438,10.4375 c -1.0293,-0.4418 -1.9751,-0.7939 -2.7188,-0.9687 -4.1137,-0.9679 -9.3452,-2.6459 -13.4374,-6.1876 1.9056,-10.1619 4.229,-19.4148 6.4062,-23.1874 0.9363,-1.623 2.4588,-4.386 4,-7.1563 z m 102.5625,0.5625 c 3.1548,2.0747 5.672,5.6411 8.0625,9.5 -6.362,2.3549 -11.0938,6.0312 -11.0938,6.0312 0,0 -7.7364,-2.2268 -18.0624,-11 7.0342,0.1526 14.059,-0.5293 21.0937,-4.5312 z m -30.8125,0.8125 c 1.606,1.6749 3.4118,3.3164 5.4062,4.8125 2.193,1.6447 4.7611,3.3679 7.5313,5.0938 -6.0178,6.7841 -14.4186,7.9178 -23.875,6.5937 l -1.0625,-9.6875 c 5.5606,-1.3682 9.9716,-4.9188 12,-6.8125 z m -32.9375,0.9687 c 2.6297,0 4.5463,3.3729 9.625,5.2188 -1.9263,3.6355 -6.4489,6.0548 -11.125,8.4062 -3.8429,-1.9424 -8.271,-4.1769 -12.75,-6.4374 0.8826,0.036 1.8131,-2e-4 2.75,-0.1563 3.8349,-0.6392 7.9848,-7.0313 11.5,-7.0313 z m 81.0625,2.4063 c 1.2811,0.9151 2.5628,1.8331 3.8438,2.75 -3.3309,0.2798 -7.3228,0.7948 -10.7188,1.7813 1.4656,-1.4377 3.6461,-2.9468 6.875,-4.5313 z m -109.1562,0.5625 c 1.4486,0.5977 3.0169,1.2903 4.75,2.1562 0.6063,0.3032 1.521,0.7772 2.4062,1.25 -4.4962,5.6737 -5.269,11.15 -7.6875,15.8126 -6.6755,-5.2991 -1.9712,-12.4383 0.5313,-19.2188 z m 40.2187,2.9688 c 1.1483,0.2397 2.4053,0.4237 3.8437,0.4687 0.6881,0.022 1.3658,-0.01 2.0313,-0.062 l 0.7813,17.75 c -1.7032,-0.7936 -3.223,-1.5221 -4.625,-2.25 -1.1934,-5.774 -2.785,-9.9805 -4.9063,-12.2812 1.239,-1.2039 2.0628,-2.4203 2.875,-3.625 z m -30.9063,1.625 c 1.5887,0.8678 3.4968,1.9453 5.5,3.0624 -1.5902,2.275 -3.0845,4.6465 -4.9687,6.625 l -5.3125,-1.2187 c 0.6583,-3.4731 2.6901,-5.9945 4.7812,-8.4687 z m 67.5626,3.125 c 0.8602,0.5067 1.7408,1.0027 2.625,1.5 l 0.1874,8.1562 -8.5,2.75 c -1.4881,-2.8698 -3.2109,-4.1441 -5,-4.9062 z m -41,0.4687 c 2.1378,2.5958 3.4619,5.5786 3.5624,9.1875 -1.0707,-0.5844 -1.9922,-1.0964 -2.7187,-1.5 -1.2048,-0.6693 -3.9387,-2.0686 -7.25,-3.75 2.1385,-1.0668 4.2692,-2.1329 6.4063,-3.9375 z m -18.9376,0.6563 c 0.6388,0.3573 1.3058,0.7221 1.9688,1.0937 l -3.375,9.0313 -3.4062,-3.3126 z m 64.875,1.6562 c 2.1216,1.1437 4.2716,2.2359 6.4063,3.25 l -3.625,5.7812 -2.9687,-2.0312 z m -59.8124,1.1562 c 2.8503,1.5999 5.782,3.2348 8.7187,4.875 l -4.1563,16.3126 c -0.8406,-0.01 -1.713,-0.013 -2.625,0 -2.4317,0.035 -5.1237,0.153 -8,0.3124 -0.097,0.01 -0.1846,0.026 -0.2812,0.031 0.047,-8.295 2.8771,-15.0778 6.3438,-21.5313 z m 68.8124,3.3126 c 3.1706,1.4154 6.243,2.6035 9.0313,3.4687 l -5.7813,9.7187 c -1.3832,-0.074 -2.7982,-0.03 -4.6874,0.063 l -3.0938,-6.2813 z m -27.3437,0.5937 c 3.9792,3.2264 7.4511,7.3157 9.9375,13.0313 -7.9287,-0.4738 -15.6926,-2.8679 -22.1562,-5.5313 l -0.7813,-7 z m -57.5937,0.6563 c 4.3015,-0.088 6.7932,1.9993 8.7812,4.6874 l -1.3125,6.7188 c -4.9837,-0.4489 -8.7639,-2.0847 -12.8125,-3.4688 0.2713,-3.1305 1.8196,-5.4532 3.375,-7.7812 0.6921,-0.1056 1.3542,-0.1439 1.9688,-0.1562 z m 29.0312,2.6562 c 5.3749,2.9824 10.4665,5.7599 14.2812,7.7188 -0.7632,5.3101 -3.5603,9.2543 -8.2187,11.9687 -1.1709,-1.9712 -2.2432,-3.6063 -2.9687,-4.125 -1.0757,-0.7683 -3.5625,-1.2499 -7.125,-1.4687 z m 69.6562,0.75 c 0.1766,0.031 0.3591,0.067 0.5313,0.094 2.0081,0.3137 3.6001,0.5251 5.1563,0.75 -0.2218,3.8057 -0.8268,7.4749 -2.9376,10.5937 -1.3793,-0.3078 -2.8324,-0.6735 -4.4374,-1.125 -1.9809,-0.5571 -3.4864,-0.94 -4.8126,-1.2187 z m -24.9687,0.9375 c 0.4608,-0.023 0.8996,-0.027 1.3125,0 0.4718,0.03 0.9127,0.1055 1.2812,0.2187 2.3635,0.7273 4.0698,5.5843 4.6876,7.5626 -2.3551,0.1184 -5.404,0.2626 -9.5,0.3437 l -5.0626,-6.75 c 0,0 4.0559,-1.2138 7.2813,-1.375 z m -80.3125,6.625 13.5312,2.3437 v 3.8438 c -5.3786,0.4628 -9.3792,1.2461 -11.8437,1.8438 -1.16,-0.6582 -2.2144,-1.2348 -3.2187,-1.75 z m 52.875,0.875 c 4.386,2.036 8.0799,2.9887 11.5938,3.4063 0.7283,1.336 1.6165,2.8897 3,5.25 -9.7454,6.1601 -13.2355,1.4349 -17.0313,-2.75 z m -74.0312,1.1563 c 1.3935,1.027 5.2006,2.2124 9.25,3.5624 -3.9214,2.0006 -7.4976,4.5429 -10.9063,7.3126 0.4881,-3.5408 1.021,-7.2007 1.6563,-10.875 z m 107.0624,2.3124 c 5.7403,0 10.8028,0.1447 15.25,1.2188 -8.51,5.5925 -17.485,9.1153 -27.4687,8.5625 -2.3723,-3.6463 -4.455,-7.3555 -5.6875,-9.5937 3.7726,0.1273 7.5266,-0.1563 11.9375,-0.1563 2.0663,0 4.0557,-0.029 5.9687,-0.031 z m 18.2813,2.1876 c 0.3333,0.1248 0.6743,0.2346 1,0.375 2.272,0.9736 4.6715,1.5127 6.875,1.8437 -1.2842,3.0987 -6.0642,9.8573 -9.375,8.5937 -2.7606,-1.0534 -8.0624,-5.5624 -8.0625,-5.5624 z m -112.0313,0.4687 c 0.9018,0.3314 1.7653,0.6824 2.5938,1.0313 -1.7615,2.6923 -4.2323,5.2311 -2.3125,8.8437 -4.7128,2.6359 -8.32,7.7673 -12.2813,12.0937 -1.5055,-0.4373 -3.0305,-0.8396 -4.5937,-1.1874 0.1705,-2.746 0.5305,-6.1505 0.9687,-9.8126 4.8968,-4.1527 9.6432,-8.5214 15.625,-10.9687 z m 35.6876,1.8437 c 13.422,-0.3195 13.4334,7.0127 15.0312,12.125 0.01,0.023 0.024,0.04 0.031,0.063 l -1.75,3.0937 c -12.2185,-14.5158 -11.5002,-9.5275 -15.5312,-11.6875 -1.4406,-1.0502 -2.1898,-2.208 -2.8125,-3.375 1.6251,-0.086 3.2901,-0.1771 5.0313,-0.2188 z m -30.7188,0.2813 c 0.02,0.011 0.043,0.021 0.062,0.031 1.3395,0.705 3.6319,2.0439 6.2187,3.5937 -0.3148,1.3611 -0.5481,2.8505 -1.2187,3.5 -2.9049,-1.0563 -5.2926,-0.5044 -7.8125,-0.4063 -1.3631,-4.4902 0.6892,-5.8164 2.75,-6.7187 z m 23.5312,0.031 c 3.6056,3.7383 3.6872,8.3855 3.1563,13.1874 -6.5578,-4.5268 -12.5957,-8.5497 -17.6563,-11.6562 2.8061,-0.4198 8.0238,-1.1113 14.5,-1.5312 z m 28.0938,0.9062 6.125,4.5625 -1.4375,10.0937 c -2.4697,-0.9171 -4.406,-1.8695 -5.125,-2.4687 -0.9881,-0.8234 -2.9053,-4.3616 -4.8437,-7.8125 z m 20.4062,2.3125 c 2.5507,4.1745 5.5588,8.6354 8.1876,11.5 -2.2217,1.0224 -6.0624,2.5688 -10.1876,3.1875 -3.0879,0.4632 -7.1356,-0.249 -10.7187,-1.3125 l 1.5937,-10 z m 22.9688,0.875 c 1.5141,1.6719 3.0172,3.6968 4.5312,4.5313 -1.952,1.9961 -2.5389,3.6074 -2.375,5 -1.9683,-0.9448 -3.9379,-1.2312 -5.9062,-1.5938 -0.2745,-2.5551 -1.466,-3.2775 -2.2812,-4.75 2.2953,-0.7707 4.3413,-1.8114 6.0312,-3.1875 z m -85.2188,1.625 c 1.8938,1.1639 3.8306,2.3858 5.875,3.6875 -4.0761,3.1897 -8.4592,8.8003 -11.9374,7.4062 3.5081,-4.9386 4.7344,-7.9716 6.0624,-11.0937 z m 18.8438,0.094 c 3.6446,1.1598 7.5693,2.9912 13.9688,11.2813 0.028,2.3388 -1.1757,4.156 -2.1563,6.0625 -2.7579,-2.1573 -5.9073,-4.5194 -9.7187,-7.1875 -0.5347,-0.3743 -1.0339,-0.7256 -1.5626,-1.0937 0.3211,-3.2233 0.555,-6.4022 -0.5312,-9.0626 z m 56.4062,2.1563 c 0.272,-0.013 0.5372,0 0.8126,0 0.3936,0.01 0.7854,0.047 1.1874,0.094 2.8648,3.8564 2.1883,6.6848 0.6563,9.25 -2.1329,-1.6637 -4.0312,-3.2885 -5.5,-4.8437 -0.8635,-0.9144 -1.7779,-2.0328 -2.6875,-3.25 1.7935,-0.6298 3.6274,-1.1577 5.5312,-1.25 z m -83.4062,0.9375 c 0.9292,0.011 1.9372,0.1185 3.0312,0.3438 -3.1654,6.2998 -7.815,10.7797 -14.0624,13.3124 -1.421,-0.6444 -2.9076,-1.2261 -4.4063,-1.75 4.9377,-4.2415 7.1495,-12.0075 15.4375,-11.9062 z m 101.5938,1.9688 c 1.7303,-0.068 3.3949,0.175 4.9374,1.0624 1.5564,2.4844 1.4973,5.3687 0.9688,8.375 -1.0991,-0.041 -2.2181,-0.068 -3.375,-0.062 -0.6196,0 -1.2672,0.014 -1.9062,0.031 -1.2631,-1.7475 -2.2342,-3.5864 -4.3126,-5.0625 -0.3128,-2.1975 0.4345,-3.5033 1.9376,-4.1875 0.5894,-0.08 1.1729,-0.1345 1.75,-0.1562 z m -84.7813,0.3124 c 2.6436,1.7123 5.2581,3.4286 7.625,5.0626 -4.273,10.0172 -14.14,12.5235 -26.3437,11.9062 -1.6893,-1.382 -3.4908,-2.5782 -5.375,-3.6562 2.5341,-1.3754 4.964,-2.877 6.875,-5.1876 6.1423,3.4543 11.6419,-3.0993 17.2187,-8.125 z m 28.75,3.4688 c 1.363,1.9373 3.4833,3.6089 6.625,4.8438 -0.04,1.1374 -0.2269,2.4488 -1.0313,4.4687 -2.2356,-0.089 -4.653,1.7735 -7.0624,3.4375 -1.0115,-0.8375 -2.1133,-1.7524 -3.2813,-2.6875 1.1647,-3.9171 2.6596,-7.3798 4.75,-10.0625 z m 44.1563,0.2188 c 5.6285,-9e-4 7.5734,2.7083 9.3124,5.5624 -2.367,0.1613 -4.8686,0.4511 -7.5624,0.875 -1.1465,-0.8119 -2.2638,-1.6358 -3.3438,-2.4374 z m -8,2.625 c 2.4075,1.8903 6.3422,4.9519 10,7.7812 -6.6905,1.6976 -12.2994,-0.5121 -17.375,-4.6875 3.3658,-0.9517 5.9229,-2.2515 7.375,-3.0937 z m -54.5938,0.625 c 2.4933,1.788 4.5665,3.3858 5.8125,4.5624 2.084,1.9682 5.2177,4.396 8.5313,6.8438 -7.3807,3.1158 -14.5638,3.5525 -21.2188,-2.5938 3.1424,-2.2079 4.9996,-5.5177 6.875,-8.8124 z m 28.0625,2.3437 c 1.8787,0.4957 4.035,0.8728 6.4687,1.125 -0.131,1.858 -0.8682,3.9495 -1.8437,6.125 -1.9211,-1.6807 -3.8289,-2.5684 -5.75,-3.4375 z m 16.0937,0.8125 3.1563,3.4688 -2.4063,5.6874 -8.25,-1 c 1.05,-2.8659 1.6029,-5.3548 1.9063,-7.625 1.9957,-0.011 3.8718,-0.2172 5.5937,-0.5312 z m 33.5313,1.3438 8.0937,10.875 -5.1562,-0.2813 c -0.7402,-0.729 -1.6082,-1.4712 -2.5938,-2.2187 -2.95,-2.2421 -6.3171,-4.5704 -9.6874,-6.9063 3.2483,-0.9775 6.354,-1.4053 9.3437,-1.4687 z m -52.5937,3.9374 c 2.246,-0.076 4.5183,1.1196 6.8124,3.3438 l -3.4062,6.6562 c -2.4488,-1.443 -5.0767,-3.7723 -8.9375,-7.0312 1.8254,-1.9502 3.668,-2.9056 5.5313,-2.9688 z m 24.1874,0.5313 4.5,1.25 c 0.1443,2.7968 -0.1042,5.4915 -1.4062,7.875 -2.4425,-1.6095 -3.4823,-3.2349 -4.9688,-4.8437 z"
       inkscape:connector-curvature="0" />
    <path
       id="ven9"
       d="m 1908.2306,1827.2444 c -1.4912,0 -2.542,-0.6071 -2.542,-1.468 9.6309,-6.0565 21.2116,-8.3006 30.1689,-15.9353 2.261,-2.0541 6.2722,-7.2221 8.9138,-11.4841 2.6414,-4.2621 4.5998,-7.953 4.352,-8.2023 -0.248,-0.2492 -2.294,0.049 -4.5468,0.6629 -8.1123,1.477 -33.7282,16.6666 -38.6829,13.6788 14.4274,-7.4446 30.3921,-14.5811 46.0328,-19.6573 l 16.1069,-23.1793 c -10.0753,0.3851 -20.5373,-1.2498 -30.3945,1.4356 -2.4355,0.8622 -7.6166,3.0437 -11.5139,4.8483 -6.8665,3.1789 -7.1961,3.5091 -10.649,10.663 -1.7745,2.8931 -6.4626,14.1697 -9.7873,12.7567 2.4496,-5.4983 6.6401,-10.0576 7.9204,-16.0346 l -7.9204,4.0421 v -2.6207 c 0,-2.0726 1.2489,-3.3808 5.9718,-6.2557 l 13.8467,-7.3884 c -5.8931,-1.7583 -17.7318,-1.5146 -19.6134,-9.1331 l -0.3142,-2.6704 c 9.8316,5.8592 21.7086,7.96 32.9214,5.6929 -1.8514,-3.4473 -6.6976,-7.9091 -10.483,-10.2674 -5.5891,-5.8553 -17.6184,0 -22.1353,-6.452 -0.2979,-1.5554 0.045,-1.6652 2.3932,-0.7675 4.6915,-0.069 13.6259,1.9602 18.1745,1.7585 -5.1751,-10.5976 -18.7389,-23.803 -20.5871,-26.8258 9.9458,3.6439 18.5068,14.764 22.3124,24.5488 0.9478,2.872 2.7023,5.9106 3.8986,6.752 l 11.7377,10.4811 c 4.2553,-0.4922 25.4155,1.811 24.9853,-1.8279 -7.4493,-13.6177 -15.3121,-26.2407 -25.7131,-37.7487 -6.7012,-7.3166 -10.3201,-10.3542 -15.0593,-12.6404 -3.4311,-1.6551 -9.8605,-4.4922 -14.2872,-6.3044 -6.9024,-2.8256 -8.049,-3.6531 -8.049,-5.8086 0,-1.3824 0.2522,-2.5137 0.5606,-2.5137 3.3278,1.1075 6.2304,3.4898 9.7837,3.6813 2.2458,-6.1839 1.0094,-13.2032 3.2911,-19.3477 0.4975,0 0.952,1.0576 1.0098,2.3501 1.9436,4.766 -4.0142,16.4007 0.057,19.6065 4.9429,1.2646 9.2372,4.2805 14.0584,5.8679 0.1357,-0.1364 0.3798,-6.4668 0.5428,-14.0679 0.2814,-13.1382 0.3985,-13.8056 2.3732,-13.5272 1.9685,0.2776 2.0771,1.0868 2.0771,15.4704 v 15.1776 c 18.334,28.0645 13.5378,-12.5317 11.365,-28.0052 -0.4586,-2.1073 -0.2219,-2.8722 0.8892,-2.8722 4.5996,13.0219 4.6001,29.3882 2.8621,41.7206 -0.7983,4.1599 -0.6043,5.0157 1.8627,8.2187 6.4343,8.9141 10.6614,19.2868 17.294,28.0373 4.5664,-4.9496 7.3853,-12.4531 7.7712,-19.2263 -0.3952,-8.5798 -2.6421,-16.9269 -4.2564,-25.3285 -2.6289,-10.4442 -8.9039,-19.3868 -12.8804,-29.2965 -1.4025,-3.9973 -1.3763,-4.1252 0.8433,-4.1214 1.7142,0 2.7503,1.1204 4.1165,4.4388 l 8.3011,15.7859 c 2.6802,-8.2182 7.1896,-15.4153 14.4422,-20.2286 1.053,0 1.9147,0.4766 1.9147,1.0592 -5.3072,8.6221 -12.8814,15.7424 -12.2019,26.6576 0.2937,2.62 0.779,5.0101 1.0785,5.3114 12.1795,-2.3887 18.6966,-18.2202 22.4848,-28.6157 0.6497,-2.4269 1.6919,-4.4125 2.316,-4.4125 0.7302,0 0.9102,1.3951 0.5052,3.9166 -5.2019,19.9095 -16.5142,29.5483 -24.5315,33.535 1.3048,6.9993 2.8219,13.8821 3.0398,21.0365 0.4998,5.8985 -2.124,10.9027 -4.1153,16.191 5.9582,-1.8497 11.8848,-4.1008 17.4069,-7.0361 5.3529,-6.3995 9.7772,-13.6449 12.8846,-21.4093 1.4734,-4.2158 2.5195,-11.67 3.5249,-25.1166 0.7864,-10.5167 1.7057,-19.5704 2.0431,-20.1192 0.3372,-0.5488 1.0968,-0.9979 1.6879,-0.9979 0.6728,0 0.8534,1.8552 0.4827,4.9611 -0.3256,2.7285 -0.8965,8.182 -1.2684,12.119 -0.6686,7.0738 -0.6505,7.144 1.5428,5.9634 9.0869,-2.1193 27.3451,-3.3147 34.3958,-13.6584 0,-0.5663 0.4672,-1.0297 1.0385,-1.0297 0.5711,0 1.0386,0.6633 1.0386,1.4739 -7.738,12.0655 -26.2884,13.6628 -38.6136,18.5013 -1.6756,22.2284 -7.0893,28.5434 -13.6247,38.4761 8.1496,-2.9425 17.639,-1.3673 25.5465,-4.8232 l 13.1903,-10.0888 c -1.241,-12.1791 3.2059,-24.4758 12.9795,-32.0504 0.287,0 0.522,0.7154 0.522,1.5897 -9.0843,9.4026 -11.4594,18.2428 -10.7279,26.8226 l 10.7279,-11.108 -0.029,3.0976 c -0.022,2.3789 -1.6489,4.8 -7.0103,10.4341 l -15.7338,14.732 c 6.6196,2.012 13.2357,4.0375 18.7173,8.4336 3.3038,3.0015 4.0547,4.3889 4.0491,7.48 l -0.01,3.7952 c -8.644,-11.1659 -23.7734,-17.2905 -37.8715,-15.579 4.836,2.7215 21.7009,13.4063 30.6344,17.9047 3.4046,1.593 6.1951,3.463 6.201,4.1555 0.01,0.9559 -0.9477,0.9192 -3.9676,-0.1524 -19.1764,-8.428 -31.0846,-23.9673 -53.5024,-16.8605 -4.4522,1.5031 -10.2822,3.8783 -12.9553,5.2781 -4.5064,2.3597 -4.6464,2.5487 -1.922,2.5938 8.5468,2.871 17.0935,5.5745 25.6402,11.6501 8.4018,-0.9548 16.8053,-1.9923 25.266,-2.2015 7.8396,0.5973 17.1958,4.0545 22.4906,10.0739 0,0.8739 -0.3506,1.4283 -0.7789,1.2322 -7.0328,-3.6541 -13.6951,-7.8761 -21.7842,-8.1666 -7.3083,0.8399 -15.6897,-0.6944 -22.6281,2.0611 0.2428,0.3952 2.2507,1.9792 4.462,3.5203 2.6557,1.8509 6.8136,3.3058 12.2487,4.2861 8.3365,1.3493 16.255,4.2339 24.0665,7.3512 3.0056,1.2267 4.414,2.4318 4.414,3.777 0,1.0865 -0.4273,1.9755 -0.9495,1.9755 -8.3819,-4.3761 -11.1166,-4.8013 -24.9755,-8.0449 l -4.7129,-0.6329 c 6.7126,5.3269 9.5808,14.9876 17.5138,18.4898 3.3997,1.3057 5.8097,3.3336 8.9792,7.555 2.3825,3.1737 4.0162,6.0868 3.63,6.4736 -0.3862,0.3869 -2.8819,-1.724 -5.5461,-4.6911 -2.3637,-2.4333 -7.0164,-8.0611 -9.1876,-6.4567 2.4486,7.2358 5.1255,14.4304 6.94,21.8585 0,0.6075 -1.0245,0.9544 -2.2765,0.7708 -7.9074,-25.6941 -20.0685,-50.0023 -67.5903,-65.9143 0.9917,12.0925 2.5429,26.0738 14.7953,30.7204 1.9842,0.7498 5.9569,3.2827 8.8278,5.6289 9.6285,8.785 24.2899,13.5938 30.6897,25.6355 0.7114,1.7272 0.9421,3.4779 0.5126,3.8904 -0.4295,0.4123 -1.3103,-0.1452 -1.9574,-1.2392 -5.0617,-7.5556 -12.0642,-13.7987 -20.0886,-17.9842 1.4255,5.3485 4.4612,10.406 7.6082,14.948 1.3665,1.8316 2.0579,3.5953 1.5364,3.9194 -0.5213,0.324 -2.1893,-0.8945 -3.7065,-2.7076 -5.1444,-7.0877 -8.2212,-15.3904 -13.8928,-22.1248 -3.6284,-4.0272 -8.2451,-6.5042 -13.2109,-8.4049 -2.1376,-0.6632 -2.1404,-0.6268 -0.4798,6.0077 0.919,3.6714 2.892,8.4937 4.3845,10.7164 3.7372,5.9168 9.6588,10.1459 13.3053,16.0769 0,0.5609 -1.0515,0.9731 -2.3367,0.9158 l -15.1932,-14.2946 c -1.9697,5.8309 -6.0588,13.5633 -12.7995,14.3988 -1.5978,0 -2.905,-0.3914 -2.905,-0.8698 6.3625,-6.6587 11.7175,-10.4474 11.1612,-20.4745 -4.1641,-11.0115 -7.3205,-32.2153 -12.3571,-41.746 -5.9822,13.6709 -19.0299,23.7188 -22.7174,37.6184 -2.67,4.2208 0.6493,13.8624 6.1426,25.4719 h -2.5758 c -3.5004,-5.508 -7.7738,-8.9433 -8.9692,-20.6325 -9.3041,11.5561 -22.4672,17.6949 -36.6881,20.6325 z"
       inkscape:connector-curvature="0" />
    <filter
       id="filter3746"
       x="-0.020391142"
       width="1.0407823"
       y="-0.15350011"
       height="1.3070002">
      <feGaussianBlur
         inkscape:collect="always"
         stdDeviation="4.423125"
         id="feGaussianBlur3748" />
    </filter>
    <filter
       id="filter3750"
       x="-0.021076029"
       width="1.042152"
       y="-0.1233306"
       height="1.2466612">
      <feGaussianBlur
         inkscape:collect="always"
         stdDeviation="3.5003227"
         id="feGaussianBlur3752" />
    </filter>
    <filter
       id="filter3754"
       x="-0.021823216"
       width="1.0436465"
       y="-0.10274538"
       height="1.2054908">
      <feGaussianBlur
         inkscape:collect="always"
         stdDeviation="3.0572395"
         id="feGaussianBlur3756" />
    </filter>
  </defs>
  <sodipodi:namedview
     id="base"
     pagecolor="#ffffff"
     bordercolor="#666666"
     borderopacity="1.0"
     inkscape:pageopacity="0.0"
     inkscape:pageshadow="2"
     inkscape:zoom="0.24748737"
     inkscape:cx="508.1348"
     inkscape:cy="30.677683"
     inkscape:document-units="mm"
     inkscape:current-layer="layer1"
     showgrid="false"
     fit-margin-top="0"
     fit-margin-left="0"
     fit-margin-right="0"
     fit-margin-bottom="0"
     inkscape:window-width="1920"
     inkscape:window-height="1017"
     inkscape:window-x="1912"
     inkscape:window-y="-8"
     inkscape:window-maximized="1" />
  <metadata
     id="metadata5">
    <rdf:RDF>
      <cc:Work
         rdf:about="">
        <dc:format>image/svg+xml</dc:format>
        <dc:type
           rdf:resource="http://purl.org/dc/dcmitype/StillImage" />
        <dc:title></dc:title>
      </cc:Work>
    </rdf:RDF>
  </metadata>
  <g
     inkscape:label="Layer 1"
     inkscape:groupmode="layer"
     id="layer1"
     transform="translate(239.79702,163.64531)">
    <path
       style="fill:#008000;stroke-width:0.26458332"
       d="m -199.94845,-58.59325 c -0.6254,-6.286322 -3.0075,-12.353215 -6.24984,-17.754918 -1.88774,-4.721475 -5.50581,-8.447866 -8.44492,-12.524442 -2.10653,-3.410377 -3.8254,-7.261343 -6.38133,-10.468747 -2.20794,-4.296463 -5.79146,-7.639253 -8.78552,-11.376443 -2.50418,-1.24708 -4.66713,-8.62454 -0.16556,-5.42884 2.47378,2.68437 5.9874,4.21934 8.23507,7.1028 1.15582,1.28772 4.7316,2.45292 1.60696,0.0131 -1.33141,-3.04588 -5.56849,-4.64227 -5.8749,-7.78315 -2.77138,-1.84639 -2.83253,-4.58296 -5.2471,-6.68934 -0.84527,-1.15247 -4.62562,-4.95816 -1.74798,-5.38173 3.29839,2.21841 6.02596,5.23655 8.78403,8.09233 0.79446,1.49192 4.75578,6.32815 2.49753,1.85457 -0.84369,-3.9634 -6.11173,-5.19596 -7.46785,-8.97968 -3.15463,-2.5402 -5.12142,-6.35756 -7.45652,-9.69999 -1.68266,-1.71198 -1.30021,-6.48212 1.38918,-3.15648 2.29176,2.10255 2.38921,4.79907 5.26333,6.42229 1.42081,1.23227 5.6699,8.26795 5.02542,3.04763 -0.38297,-4.34819 -2.59656,-8.03743 -3.61143,-12.2393 -0.0978,-1.54772 -1.893,-3.23372 -0.82858,-4.66306 2.0597,-3.25888 -0.6833,-6.84524 -0.97233,-10.26462 -0.2501,-1.74578 -0.0153,-7.71184 2.46365,-3.9553 0.61611,2.79837 1.8156,4.58027 1.61025,7.40207 2.30374,3.93716 1.9858,8.85444 2.86883,13.25699 -0.6885,2.61346 1.77585,5.50915 2.33269,1.49719 0.70807,-2.16306 -0.17307,-7.46866 2.78824,-7.1011 0.90403,3.79786 -0.0214,7.87752 -0.0518,11.66092 -1.07372,2.46349 -1.05953,5.04673 -2.2706,7.35228 0.33357,2.22895 2.68236,6.54686 2.93795,1.73048 1.33698,-3.97369 2.15245,-8.0965 3.52591,-12.07386 -1.00896,-2.13553 2.10042,-6.84082 2.97459,-2.60482 -0.9616,3.64287 -0.13109,8.00439 -2.13589,11.20321 -0.16688,3.83668 -1.78126,7.34741 -2.16975,11.04058 -1.16907,2.22163 -0.58329,6.69395 0.98125,7.58028 0.74707,-4.16324 2.21385,-8.15815 2.64438,-12.39491 -0.30652,-2.37383 2.13385,-10.17031 3.89786,-4.83694 -0.89031,4.15849 0.10993,8.57221 -1.50043,12.53236 -0.1996,1.57266 1.26643,8.62391 1.58549,3.58462 0.96812,-2.36422 0.86046,-9.46384 4.39649,-8.00421 0.89268,3.93578 -1.18521,7.88764 -1.0986,11.7922 -1.24163,4.11648 -2.83888,8.54239 -1.07608,12.786553 0.55078,3.892369 1.32411,7.820145 2.01104,11.650731 -0.002,1.747722 2.11837,8.905043 2.42563,3.795318 0.46559,-4.007956 -0.0623,-8.055892 0.96677,-11.922598 0.21006,-3.58278 1.29183,-6.936535 1.28351,-10.584914 3.14418,-2.64469 3.2184,5.436195 2.44947,7.520518 -0.65025,3.21043 -0.74927,6.330493 -0.25744,9.382333 -0.61892,3.160183 -1.11335,7.471742 -0.39528,10.204701 1.4864,-3.760374 2.07123,-7.519279 2.04492,-11.470388 0.0652,-3.163026 0.32267,-6.383736 0.88862,-9.53404 3.63541,-2.483163 3.24112,5.50608 3.54361,7.793327 -1.01112,6.527481 -1.87085,13.091208 -2.81648,19.619359 -2.25259,3.780539 -1.68232,8.206664 -3.34448,12.090709 -0.27845,2.28316 -2.97751,0.136245 -3.07195,-1.115589 z"
       id="path2305"
       inkscape:connector-curvature="0" />
    <path
       style="fill:#008000;stroke-width:0.23924865"
       d="m -166.02495,-47.658372 c 3.79471,-1.133681 7.68068,-2.16995 11.56797,-3.122895 3.52778,-0.723215 7.63871,-1.819471 9.7691,-4.864637 1.36838,-3.803811 3.86557,-7.187346 7.62266,-8.882047 4.21683,-3.016323 8.29276,-6.307703 11.84745,-10.079666 -3.04658,0.05545 -5.36873,3.633009 -8.07775,5.123805 -1.31039,0.93145 -6.87683,4.539549 -3.92439,0.583987 2.85784,-2.254585 0.23305,-3.012533 -1.61645,-1.018159 -3.36462,3.29817 -8.09761,4.439269 -12.35121,6.148771 2.95731,-2.257938 5.43065,-5.183038 8.95561,-6.615536 3.63213,-2.021296 7.33332,-4.232351 9.48664,-7.930321 2.37042,-3.46148 5.65248,-6.662582 7.54403,-10.214185 -3.3139,2.053198 -6.17553,4.945003 -9.9091,6.362777 -1.58947,0.798309 -8.3635,3.645351 -4.08182,0.940395 4.37935,-2.742193 8.42485,-6.073453 11.26657,-10.438069 2.66084,-3.629558 -3.66881,0.51509 -4.81966,1.351015 -1.17014,1.083757 -6.53784,3.144084 -2.66535,0.743496 3.82795,-2.410997 5.09348,-6.876684 7.73538,-10.295155 0.7247,-2.385354 -3.66205,2.651689 -5.18552,2.593078 2.61822,-2.546784 7.05074,-5.617652 7.22293,-9.002032 -3.43597,1.92605 -5.87564,5.41189 -9.54242,7.156304 -1.51645,0.995297 -7.3747,5.204712 -4.53122,0.692637 3.26087,-6.492481 9.87215,-10.358071 13.3341,-16.689681 2.48575,-4.36308 -2.89494,1.46836 -4.23898,2.27948 -1.91399,1.96466 -3.1202,1.4819 -1.70213,-1.00286 2.16472,-3.96084 -1.59701,0.72616 -2.28306,0.0392 1.24214,-3.64432 3.97041,-6.48936 5.43929,-10.04528 0.96558,-1.75686 1.15135,-4.09765 -0.80774,-1.49135 -1.21204,1.44446 -6.36167,5.89881 -3.62006,1.41596 0.8742,-1.83513 2.47474,-7.83876 -0.47381,-3.48095 -1.32377,1.91652 -3.04584,5.77269 -4.77411,6.09882 0.42751,-3.5885 1.72521,-7.07153 2.05644,-10.74231 0.30362,-1.80249 1.08207,-6.83188 -1.03858,-2.79049 -2.312,3.07595 -4.80605,6.23418 -7.88067,8.51621 -0.61534,-3.66456 -2.30204,-7.19711 -2.1646,-10.97014 -0.38746,-1.92162 -1.29741,-7.60758 -2.01986,-2.60345 -0.92209,1.74212 -3.58338,8.74891 -4.22833,3.7403 -1.54932,-1.6919 -2.75673,-6.21902 -3.7617,-6.70141 -0.58934,1.91427 -3.03595,6.75114 -4.09096,5.63925 -0.43276,-1.62705 -0.74232,-8.33468 -1.69037,-3.44014 -0.52694,2.0256 -1.2339,1.70877 -1.65394,0.0206 -1.19007,2.08321 -2.6716,8.78683 -4.36853,3.42918 -1.09898,-1.18072 -2.80738,-8.4084 -2.5462,-3.23119 -0.0297,1.8782 -1.26493,5.8968 -2.11946,5.93187 0.27784,-2.3764 -1.90636,-7.41408 -1.98622,-2.29527 -1.17436,3.14948 0.61052,8.43988 -0.5317,10.36433 -1.98122,-2.2593 -3.7958,-7.81313 -5.42737,-8.37836 -0.32555,2.53592 1.26177,7.3616 -0.3067,8.64311 -0.92259,-1.92225 -3.09442,-4.24661 -2.25727,-0.29511 -0.21468,3.33112 1.33372,9.08622 0.43665,10.94305 -1.64896,-1.25538 -5.81673,-7.41611 -4.05514,-1.94114 0.93393,4.54011 0.37931,9.16117 0.32234,13.73271 -1.01068,4.170161 -1.4902,8.818717 1.28553,12.466769 1.23889,3.70746 -2.81178,7.250909 -2.25152,11.184558 0.71162,3.1059 3.25064,5.451858 4.87613,8.151104 -0.97679,2.762008 -4.18205,4.699374 -3.74992,7.811883 0.39822,4.035074 3.49005,6.74388 6.4958,9.051531 4.87788,2.881511 9.73606,5.950851 15.16791,7.691108 l 0.30133,-0.285392 z"
       id="path2331"
       inkscape:connector-curvature="0" />
  </g>
</svg>
