<?xml version="1.0" encoding="UTF-8" standalone="no"?>
<!-- Created with Inkscape (http://www.inkscape.org/) -->

<svg
   xmlns:dc="http://purl.org/dc/elements/1.1/"
   xmlns:cc="http://creativecommons.org/ns#"
   xmlns:rdf="http://www.w3.org/1999/02/22-rdf-syntax-ns#"
   xmlns:svg="http://www.w3.org/2000/svg"
   xmlns="http://www.w3.org/2000/svg"
   xmlns:sodipodi="http://sodipodi.sourceforge.net/DTD/sodipodi-0.dtd"
   xmlns:inkscape="http://www.inkscape.org/namespaces/inkscape"
   width="76.183983mm"
   height="76.183983mm"
   viewBox="0 0 76.183983 76.183984"
   version="1.1"
   id="svg889"
   inkscape:version="0.92.3 (2405546, 2018-03-11)"
   sodipodi:docname="leafArrangement-include-Alternate.svg">
  <defs
     id="defs883" />
  <sodipodi:namedview
     id="base"
     pagecolor="#ffffff"
     bordercolor="#666666"
     borderopacity="1.0"
     inkscape:pageopacity="0.0"
     inkscape:pageshadow="2"
     inkscape:zoom="1.4"
     inkscape:cx="15.411047"
     inkscape:cy="129.09529"
     inkscape:document-units="mm"
     inkscape:current-layer="layer1"
     showgrid="false"
     fit-margin-top="0"
     fit-margin-left="0"
     fit-margin-right="0"
     fit-margin-bottom="0"
     inkscape:window-width="1920"
     inkscape:window-height="1017"
     inkscape:window-x="1912"
     inkscape:window-y="-8"
     inkscape:window-maximized="1" />
  <metadata
     id="metadata886">
    <rdf:RDF>
      <cc:Work
         rdf:about="">
        <dc:format>image/svg+xml</dc:format>
        <dc:type
           rdf:resource="http://purl.org/dc/dcmitype/StillImage" />
        <dc:title></dc:title>
      </cc:Work>
    </rdf:RDF>
  </metadata>
  <g
     inkscape:label="Layer 1"
     inkscape:groupmode="layer"
     id="layer1"
     transform="translate(-148.05939,-42.176683)">
    <path
       style="fill:#008000;stroke-width:0.43441916"
       d="m 183.05198,117.40762 c -0.4084,-1.07746 -0.078,-19.080014 0.34528,-18.816029 0.14514,0.09047 0.19926,-1.410227 0.12018,-3.334976 -0.16609,-4.045179 -1.02653,-5.807938 -3.97472,-8.142952 -1.57977,-1.2512 -1.93135,-1.365148 -2.87935,-0.933206 -1.55476,0.708399 -4.796,0.605255 -6.50791,-0.207096 -2.1682,-1.028874 -8.8669,-11.015173 -8.8669,-13.218596 0,-0.717876 0.15647,-0.755139 1.41187,-0.336235 0.77652,0.25911 1.59757,0.639919 1.82456,0.84624 0.22698,0.206321 0.70561,0.375129 1.06362,0.375129 0.35802,0 2.28346,0.497949 4.27876,1.106553 4.65344,1.419384 6.77687,3.215062 7.74663,6.550904 0.44078,1.516258 1.01172,2.507428 1.62559,2.822165 0.52042,0.266812 1.58154,1.086469 2.35806,1.821459 0.78266,0.740788 1.41187,1.081061 1.41187,0.763517 0,-0.457899 0.12971,-0.465184 0.64648,-0.03627 0.86806,0.720422 0.83783,0.860314 1.97869,-9.153262 0.93897,-8.241508 0.94529,-8.579076 0.20359,-10.860471 -0.92301,-2.839111 -2.04646,-4.165495 -3.86076,-4.55816 -3.05595,-0.661409 -4.45552,-2.466815 -6.62939,-8.551727 -0.6182,-1.730369 -1.34653,-3.439358 -1.61851,-3.797755 -0.87419,-1.1519 -1.53532,-2.506969 -1.3255,-2.716789 0.20387,-0.203876 7.68597,7.077252 10.66031,10.373956 0.86644,0.960366 1.72545,2.220604 1.90889,2.800529 0.18343,0.579927 0.64745,1.536162 1.03114,2.124972 l 0.69763,1.070561 0.28776,-2.156608 c 0.15828,-1.186136 0.30486,-3.976343 0.3258,-6.200459 0.0361,-3.842305 -0.0253,-4.123775 -1.23282,-5.647449 -0.69899,-0.881979 -1.60217,-2.632884 -2.00706,-3.890898 -0.40487,-1.258015 -0.90817,-2.393612 -1.11841,-2.523548 -0.21025,-0.12994 -0.37463,-0.469071 -0.36532,-0.753633 0.01,-0.284563 1.1089,0.655546 2.44355,2.089129 1.33464,1.433583 2.10897,2.075798 1.72075,1.427145 -1.2002,-2.005264 -0.70482,-3.43062 0.63232,-1.819447 0.5228,0.62993 0.60481,0.619941 0.89151,-0.108612 0.29511,-0.749954 0.31862,-0.745611 0.36008,0.06648 0.0437,0.85456 0.0548,0.855082 0.67768,0.03171 1.02318,-1.35245 1.14174,-0.546721 0.20487,1.39237 -0.92573,1.916058 -1.01546,2.914801 -0.58433,6.504066 0.30393,2.530391 1.02175,3.107074 1.02175,0.820856 0,-1.360919 1.30528,-3.817261 2.84852,-5.360496 0.34476,-0.344765 0.62684,-0.80837 0.62684,-1.030233 0,-0.221865 0.2164,-0.40339 0.4809,-0.40339 0.28487,0 0.35625,0.309899 0.17512,0.760234 -0.16816,0.418129 -0.40271,1.639932 -0.52119,2.715119 -0.27066,2.456045 -1.21889,4.77492 -1.95895,4.790541 -0.31086,0.0066 -1.00504,0.884069 -1.54263,1.950019 -0.76556,1.517982 -0.97744,2.675887 -0.97744,5.341792 0,1.872036 -0.30199,5.423366 -0.67109,7.891845 -0.4783,3.198867 -0.53701,4.622198 -0.2044,4.95481 0.62034,0.620348 2.57609,-1.742803 2.59753,-3.138642 0.008,-0.559152 0.55323,-1.787315 1.21028,-2.729255 0.97895,-1.40339 2.23965,-2.227288 6.98224,-4.563083 3.18317,-1.567757 5.8691,-2.768951 5.96873,-2.669316 0.0997,0.09963 -0.40328,0.74107 -1.11757,1.425413 -0.7143,0.684342 -1.29873,1.519627 -1.29873,1.856188 0,0.564774 -1.22504,3.068624 -1.74652,3.569709 -0.12429,0.119464 -0.47599,0.705931 -0.78148,1.303257 -1.44953,2.834335 -1.95571,3.536205 -3.24871,4.50463 -1.81446,1.358985 -3.11731,1.730253 -4.14384,1.180864 -0.94279,-0.504566 -1.73854,0.179838 -3.39937,2.923732 -1.93362,3.194554 -2.30083,4.544777 -2.77476,10.203072 -0.26408,3.152802 -0.64101,6.807571 -0.83763,8.121681 -0.19662,1.314127 -0.29833,2.451733 -0.22606,2.528015 0.0722,0.07635 0.49255,-0.05024 0.93395,-0.281224 0.4414,-0.23095 1.65615,-0.77317 2.69943,-1.20494 1.2529,-0.518512 2.25074,-1.345569 2.93919,-2.436151 1.93534,-3.065771 3.80632,-4.011357 9.56745,-4.835376 2.82992,-0.404778 6.23228,-0.928084 7.56079,-1.162908 4.04244,-0.71454 4.01463,-0.737556 2.44931,2.026382 -1.84916,3.265146 -6.66337,6.931966 -9.90924,7.54753 -2.94823,0.559116 -7.17522,0.542057 -8.25028,-0.03333 -1.25812,-0.673326 -2.02875,-0.271028 -5.27667,2.754578 l -2.93232,2.73163 -0.003,3.24219 c -0.002,1.7832 0.22619,4.74717 0.50615,6.58659 0.40776,2.67904 0.39775,3.47848 -0.0502,4.01837 -0.81572,0.98289 -2.1547,0.82554 -2.58265,-0.30346 z"
       id="path859"
       inkscape:connector-curvature="0" />
  </g>
</svg>
