<?xml version="1.0" encoding="UTF-8" standalone="no"?>
<!-- Created with Inkscape (http://www.inkscape.org/) -->

<svg
   xmlns:dc="http://purl.org/dc/elements/1.1/"
   xmlns:cc="http://creativecommons.org/ns#"
   xmlns:rdf="http://www.w3.org/1999/02/22-rdf-syntax-ns#"
   xmlns:svg="http://www.w3.org/2000/svg"
   xmlns="http://www.w3.org/2000/svg"
   xmlns:sodipodi="http://sodipodi.sourceforge.net/DTD/sodipodi-0.dtd"
   xmlns:inkscape="http://www.inkscape.org/namespaces/inkscape"
   width="76.969833mm"
   height="76.969833mm"
   viewBox="0 0 76.969833 76.969833"
   version="1.1"
   id="svg8"
   inkscape:version="0.92.3 (2405546, 2018-03-11)"
   sodipodi:docname="leafArrangement-include-Opposite.svg">
  <defs
     id="defs2" />
  <sodipodi:namedview
     id="base"
     pagecolor="#ffffff"
     bordercolor="#666666"
     borderopacity="1.0"
     inkscape:pageopacity="0.0"
     inkscape:pageshadow="2"
     inkscape:zoom="1.4"
     inkscape:cx="39.912211"
     inkscape:cy="134.16221"
     inkscape:document-units="mm"
     inkscape:current-layer="layer1"
     showgrid="false"
     fit-margin-top="0"
     fit-margin-left="0"
     fit-margin-right="0"
     fit-margin-bottom="0"
     inkscape:window-width="1920"
     inkscape:window-height="1017"
     inkscape:window-x="1912"
     inkscape:window-y="-8"
     inkscape:window-maximized="1" />
  <metadata
     id="metadata5">
    <rdf:RDF>
      <cc:Work
         rdf:about="">
        <dc:format>image/svg+xml</dc:format>
        <dc:type
           rdf:resource="http://purl.org/dc/dcmitype/StillImage" />
        <dc:title></dc:title>
      </cc:Work>
    </rdf:RDF>
  </metadata>
  <g
     inkscape:label="Layer 1"
     inkscape:groupmode="layer"
     id="layer1"
     transform="translate(-41.284023,-21.508837)">
    <path
       style="fill:#008000;stroke-width:0.41243294"
       d="m 79.131015,98.191239 c -0.149956,-0.242551 -0.140759,-3.275175 0.02026,-6.739165 0.326662,-7.026529 0.379958,-6.8122 -2.589902,-10.415309 -1.645144,-1.995908 -1.92261,-2.165273 -3.547365,-2.165273 -1.589728,0 -4.58018,-1.202377 -6.124497,-2.462484 -2.214455,-1.806915 -4.834523,-4.302018 -4.834523,-4.60394 0,-0.202396 -1.211393,-2.154661 -2.691991,-4.338361 -2.68368,-3.958106 -3.183784,-5.306728 -1.251234,-3.374179 0.560158,0.560157 1.722934,1.375456 2.583953,1.811777 0.861021,0.436321 1.844739,1.014457 2.186048,1.284744 0.341309,0.270285 1.176485,0.581416 1.855948,0.691395 0.679463,0.109974 1.281788,0.238424 1.338498,0.285432 0.05671,0.04701 0.242304,0.111501 0.412432,0.143332 0.170129,0.03185 0.494919,0.168624 0.721758,0.303988 0.226838,0.135367 1.49293,0.579708 2.813546,0.987431 3.180267,0.981875 6.878633,4.527012 6.878633,6.593646 0,0.736405 0.278386,1.56996 0.618641,1.852349 0.340256,0.282388 0.618658,0.375185 0.618658,0.206215 0,-0.168969 0.278386,-0.07618 0.618641,0.206217 0.546454,0.45352 0.615134,-0.418952 0.588541,-7.476401 -0.01652,-4.394407 -0.208645,-9.010604 -0.426878,-10.258213 -0.218216,-1.24761 -0.430026,-2.579916 -0.470695,-2.96068 -0.04069,-0.380764 -0.187446,-0.659156 -0.326164,-0.618649 -0.138733,0.0405 -0.949139,-0.641156 -1.800914,-1.514805 -1.440224,-1.477217 -1.669321,-1.570361 -3.271488,-1.3301 -1.04156,0.156192 -2.486741,0.02845 -3.654673,-0.323051 -2.650276,-0.797614 -7.556557,-4.071099 -9.911117,-6.612723 -2.921815,-3.153943 -5.952739,-9.177667 -3.513528,-6.982865 1.069883,0.962685 7.385065,4.041128 9.090393,4.431268 0.63308,0.144828 1.053684,0.420893 0.934668,0.613463 -0.119015,0.192569 0.337378,0.46088 1.014205,0.596245 3.462745,0.69255 7.217492,3.237546 8.280985,5.612912 0.410042,0.915857 0.951149,1.665193 1.202459,1.665193 0.25131,0 0.342235,-0.185596 0.202036,-0.412434 -0.429761,-0.695388 0.19086,-0.459011 1.15144,0.438542 l 0.91073,0.850975 0.27053,-5.078412 c 0.403262,-7.570034 0.03772,-11.791626 -1.157581,-13.366 -0.532892,-0.701927 -0.968889,-1.458352 -0.968889,-1.680948 0,-0.939799 -1.950856,-2.198235 -3.407743,-2.198235 -1.718828,0 -4.132352,-1.848497 -9.367359,-7.17438 -2.841787,-2.891117 -3.432808,-3.946683 -1.442501,-2.576311 0.44744,0.308073 1.533343,0.692144 2.41312,0.853491 0.879773,0.161348 2.619617,0.744465 3.866317,1.295816 1.246714,0.551351 2.458121,1.002458 2.692035,1.002458 0.881487,0 3.20594,2.159016 4.258957,3.955834 0.621323,1.060213 1.315847,1.780349 1.608668,1.667986 0.283406,-0.108757 0.723487,0.01044 0.977977,0.264956 0.341969,0.341965 0.462683,-0.527342 0.462683,-3.331692 0,-2.086911 0.139201,-3.78848 0.309329,-3.781266 0.170127,0.0072 0.63412,0.259667 1.031084,0.561008 0.570834,0.433327 0.721757,1.174195 0.721757,3.543064 0,2.548065 0.08792,2.922229 0.588775,2.506531 0.482246,-0.40023 0.612827,-0.289167 0.721756,0.613859 l 0.132966,1.102497 1.443512,-1.27642 c 0.793929,-0.702031 1.582714,-1.279385 1.752841,-1.283007 0.170128,-0.0036 0.309329,-0.363317 0.309329,-0.799317 0,-0.937534 3.128967,-3.744033 4.174221,-3.744033 0.399459,0 0.841005,-0.185596 0.981203,-0.412433 0.140137,-0.226838 0.540686,-0.412434 0.889982,-0.412434 0.349297,0 1.219919,-0.263179 1.934707,-0.584843 3.704196,-1.666917 5.217745,-2.223014 5.217745,-1.917063 0,0.186308 -0.267178,0.56048 -0.593732,0.831493 -0.326537,0.271012 -1.150801,1.6393 -1.831685,3.040639 -2.185377,4.49775 -3.212768,5.214989 -7.700168,5.375575 l -3.21018,0.114884 -2.13866,2.297669 c -1.267477,1.361698 -2.247418,2.84145 -2.405652,3.632573 -0.146839,0.734199 -0.266976,4.957905 -0.266976,9.386018 V 54.6584 l 1.011382,-1.091306 c 1.310547,-1.4141 1.494812,-1.375738 1.196489,0.249099 -0.213914,1.16517 -0.172138,1.255395 0.319632,0.690146 0.311168,-0.357646 1.354521,-1.254815 2.318577,-1.993714 1.597086,-1.224069 1.752841,-1.506112 1.752841,-3.173957 0,-1.571357 0.240664,-2.0916 1.699951,-3.674729 1.36099,-1.47651 2.245018,-2.006295 4.433668,-2.657074 1.503527,-0.447068 3.847279,-0.919673 5.208299,-1.050235 1.361034,-0.130565 3.184994,-0.327191 4.053254,-0.436955 l 1.57866,-0.199571 -1.0594,0.981822 c -0.58267,0.540004 -1.34196,1.658071 -1.68731,2.484596 -0.34534,0.826523 -0.77099,1.50277 -0.94587,1.50277 -0.17488,0 -0.66314,0.603183 -1.085032,1.340408 -1.289706,2.253681 -2.392356,3.219322 -5.152931,4.512624 -2.035062,0.953407 -2.998183,1.18513 -4.15617,0.999963 -2.282101,-0.364923 -4.147815,1.134962 -6.825664,5.487312 l -1.629286,2.648136 -0.126886,8.660865 c -0.119405,8.148783 -0.08496,8.626236 0.582009,8.075122 0.647121,-0.534711 0.68924,-0.482423 0.483494,0.600118 -0.213322,1.122408 -0.121587,1.075812 1.715726,-0.870756 1.067623,-1.131147 2.18798,-2.652583 2.489686,-3.380973 0.844279,-2.038284 3.862274,-4.805882 6.055664,-5.553248 1.346711,-0.458869 3.423642,-0.660626 6.80057,-0.660626 3.70062,0 5.20859,-0.165403 6.31406,-0.692566 0.79878,-0.380915 1.55089,-0.594024 1.67133,-0.473572 0.1205,0.120449 -1.40837,1.825291 -3.39739,3.788543 -3.30823,3.26538 -4.5267,4.147829 -8.153153,5.90474 -0.68051,0.329691 -1.560391,0.773608 -1.955298,0.986486 -0.946614,0.510298 -5.999671,1.217304 -6.721241,0.940412 -0.310716,-0.119232 -0.953191,0.05515 -1.427737,0.387526 -0.969996,0.679418 -3.45153,4.404194 -3.141032,4.714695 0.110519,0.11055 0.01559,0.690886 -0.212885,1.289632 -0.227648,0.598746 -0.512519,3.131591 -0.633061,5.628546 -0.132498,2.744886 -0.406894,4.659721 -0.693963,4.842924 -0.342734,0.218717 -0.327956,0.304762 0.05316,0.309323 0.346584,0.0042 0.218794,0.424373 -0.37207,1.223561 -1.028996,1.391801 -1.862706,1.83221 -2.257908,1.192752 z"
       id="path872"
       inkscape:connector-curvature="0" />
  </g>
</svg>
