<?xml version="1.0" encoding="UTF-8" standalone="no"?>
<!-- Created with Inkscape (http://www.inkscape.org/) -->

<svg
   xmlns:dc="http://purl.org/dc/elements/1.1/"
   xmlns:cc="http://creativecommons.org/ns#"
   xmlns:rdf="http://www.w3.org/1999/02/22-rdf-syntax-ns#"
   xmlns:svg="http://www.w3.org/2000/svg"
   xmlns="http://www.w3.org/2000/svg"
   xmlns:sodipodi="http://sodipodi.sourceforge.net/DTD/sodipodi-0.dtd"
   xmlns:inkscape="http://www.inkscape.org/namespaces/inkscape"
   width="100mm"
   height="100mm"
   viewBox="0 0 100 100"
   version="1.1"
   id="svg8"
   inkscape:version="0.92.3 (2405546, 2018-03-11)"
   sodipodi:docname="type-compound.svg">
  <defs
     id="defs2" />
  <sodipodi:namedview
     id="base"
     pagecolor="#ffffff"
     bordercolor="#666666"
     borderopacity="1.0"
     inkscape:pageopacity="0.0"
     inkscape:pageshadow="2"
     inkscape:zoom="0.49497475"
     inkscape:cx="-109.71932"
     inkscape:cy="50.918218"
     inkscape:document-units="mm"
     inkscape:current-layer="layer1"
     showgrid="false"
     fit-margin-top="0"
     fit-margin-left="0"
     fit-margin-right="0"
     fit-margin-bottom="0"
     inkscape:window-width="1920"
     inkscape:window-height="1017"
     inkscape:window-x="1912"
     inkscape:window-y="-8"
     inkscape:window-maximized="1" />
  <metadata
     id="metadata5">
    <rdf:RDF>
      <cc:Work
         rdf:about="">
        <dc:format>image/svg+xml</dc:format>
        <dc:type
           rdf:resource="http://purl.org/dc/dcmitype/StillImage" />
        <dc:title></dc:title>
      </cc:Work>
    </rdf:RDF>
  </metadata>
  <g
     inkscape:label="Layer 1"
     inkscape:groupmode="layer"
     id="layer1"
     transform="translate(-37.240942,-116.01828)">
    <path
       style="fill:#008000;stroke-width:0.30087492"
       d="m 90.973465,116.8788 c -0.02807,1.14637 0.821058,3.78889 1.776885,5.52978 2.184607,3.97891 2.698695,7.73326 1.493051,10.90375 -1.326037,3.48708 -3.032098,6.13429 -5.423747,8.41573 -1.440604,1.37423 -2.45069,2.61345 -2.676688,3.28388 -0.446305,1.32398 -0.440108,6.70075 0.0078,6.66905 0.169722,-0.0107 0.421615,-0.65728 0.559752,-1.4339 0.304938,-1.71442 1.208657,-3.89454 2.251505,-5.43149 3.167964,-4.66902 3.765512,-5.38611 5.321505,-6.3861 3.175996,-2.04118 4.747998,-2.5007 10.165402,-2.97134 3.24979,-0.28252 4.26083,-0.47289 4.83695,-0.91148 0.69003,-0.5253 0.73044,-0.52519 0.76773,0.002 0.0217,0.30596 -0.25071,1.24455 -0.60521,2.08577 -0.35451,0.84118 -0.63664,1.6496 -0.62694,1.79647 0.01,0.14677 -0.34094,0.95419 -0.7792,1.79402 -0.43825,0.83987 -0.78451,1.70106 -0.76945,1.91381 0.0688,0.97157 -3.42217,4.03701 -6.81556,5.98487 -4.811473,2.76185 -6.362384,3.37677 -9.828744,3.89703 -4.091569,0.61407 -4.502381,0.73645 -4.735009,1.41047 -0.265208,0.76844 0.08671,9.15429 0.440936,10.50716 0.276011,1.05408 0.318015,1.08606 0.676538,0.51513 0.210233,-0.33475 0.358566,-0.9544 0.3296,-1.37685 -0.131911,-1.92366 0.437894,-3.14718 2.757647,-5.92133 1.281535,-1.53258 2.69356,-3.00514 3.137829,-3.27233 0.444269,-0.26724 1.192346,-0.8054 1.662386,-1.19605 0.470043,-0.39065 1.185277,-0.83287 1.589412,-0.98269 0.404134,-0.14996 1.190178,-0.5505 1.746763,-0.89033 1.693925,-1.03429 8.863382,-2.18215 10.119342,-1.6201 0.38042,0.17021 1.55977,0.25301 2.62079,0.18407 1.7895,-0.1162 2.36765,0.0817 1.68192,0.57552 -0.15533,0.11194 -0.68664,1.17437 -1.18071,2.36114 -0.64684,1.55372 -1.55345,2.90134 -3.23873,4.81415 -3.12634,3.54849 -5.71597,5.25371 -10.22545,6.73316 -4.271782,1.40152 -6.500326,1.78094 -8.851713,1.50713 -1.692383,-0.19722 -1.85794,-0.1656 -2.281484,0.43198 -0.960137,1.35493 -0.338875,9.3351 0.986182,12.66784 0.562928,1.41584 0.941686,1.10888 0.824302,-0.66805 -0.180738,-2.73626 1.052578,-4.62321 4.473561,-6.84438 1.421609,-0.92302 5.141201,-2.68268 5.995006,-2.83616 0.245698,-0.0441 1.041946,-0.30099 1.769396,-0.57047 1.60243,-0.59384 6.37547,-0.71389 8.43056,-0.21215 1.40666,0.34364 6.03041,2.10116 6.04431,2.29764 0.004,0.0593 -0.69419,0.73952 -1.55199,1.51137 -0.85781,0.77185 -2.08705,2.02653 -2.73164,2.78818 -1.77179,2.09352 -4.56169,3.51757 -12.0199,6.13536 -2.868581,1.00686 -6.487313,1.32256 -8.504573,0.74193 -1.066167,-0.30703 -1.585702,-0.33226 -1.798163,-0.0874 -0.212473,0.24485 0.04591,1.82402 0.894305,5.46565 0.656205,2.81675 1.339271,5.58607 1.517931,6.15405 l 0.324838,1.03272 -0.04929,-1.20305 c -0.101847,-2.48566 1.917551,-5.0821 4.750158,-6.1075 3.648864,-1.32089 5.272414,-1.5765 9.964714,-1.569 5.5359,0.007 6.37065,0.0935 8.11802,0.82092 0.97798,0.40725 1.98459,0.72584 2.2369,0.708 1.22443,-0.0867 -0.0992,1.1163 -3.39274,3.08338 -1.11417,0.66546 -2.19441,1.22438 -2.40053,1.24207 -0.20611,0.0178 -0.36749,0.13504 -0.35861,0.26048 0.0142,0.20292 -2.94545,2.07128 -4.47533,2.82476 -0.32061,0.15778 -1.17208,0.5931 -1.89215,0.96705 -0.72006,0.37395 -2.35271,0.98855 -3.6281,1.36581 -3.181884,0.94114 -4.242347,0.84679 -8.212993,-0.73067 -0.35405,-0.14072 0.197546,3.50794 0.81389,5.38341 l 0.455715,1.38677 0.576628,-1.30898 c 0.450417,-1.02249 0.983029,-1.55937 2.433327,-2.45276 1.70949,-1.05312 2.012302,-1.14146 3.819353,-1.11431 2.11353,0.032 8.30696,1.08876 10.07539,1.71953 1.13793,0.4059 1.99393,0.97633 2.93499,1.95586 l 0.56514,0.58823 -2.94874,0.21997 c -1.62181,0.12118 -3.22294,0.39278 -3.55807,0.60384 -0.33515,0.21108 -0.92884,0.40639 -1.31935,0.434 -0.39052,0.0284 -0.83015,0.17484 -0.97697,0.32729 -0.56257,0.58355 -3.58314,1.59178 -5.624467,1.87732 l -2.131762,0.29815 -1.470489,-1.17476 c -1.144294,-0.91418 -1.502234,-1.07057 -1.613605,-0.70505 -0.164711,0.54051 1.378418,5.56255 2.976867,9.68819 0.601254,1.55184 1.099297,2.90784 1.106763,3.01334 0.0075,0.10555 -0.251313,0.21038 -0.57505,0.23348 -0.653543,0.0462 -0.678095,-0.0107 -3.309868,-7.45728 -0.85782,-2.42771 -1.701572,-4.57368 -1.875004,-4.76877 -0.505285,-0.56837 -1.436765,-0.33405 -1.668309,0.41968 -1.208931,3.93548 -2.066609,4.92098 -4.627185,5.31682 -1.198835,0.1855 -2.160475,0.0949 -3.849616,-0.36216 -3.96355,-1.07241 -5.225007,-1.85084 -5.758742,-3.55357 l -0.272351,-0.86893 0.607029,0.64992 c 0.576589,0.61731 0.672718,0.62534 1.916983,0.16027 0.720476,-0.26936 1.45894,-0.65625 1.641029,-0.85976 0.69237,-0.77385 5.463406,-3.32252 6.616562,-3.5346 0.964191,-0.17732 1.627045,-0.0384 3.306609,0.69239 1.15537,0.50281 2.093141,0.82296 2.083937,0.71148 -0.04144,-0.50202 -2.009673,-7.19865 -2.188915,-7.44751 -0.354831,-0.4926 -0.69968,-0.27505 -2.360438,1.49011 -2.443537,2.59693 -3.105239,2.91154 -7.042011,3.34821 -2.058962,0.2285 -3.654412,0.26972 -4.064551,0.10483 -1.168203,-0.46915 -3.668534,-0.99335 -6.141121,-1.28748 -1.311709,-0.15601 -3.133178,-0.44495 -4.047707,-0.64204 -1.822979,-0.39289 -3.348414,-1.35124 -3.029436,-1.90326 0.29815,-0.51602 4.31342,-3.11459 5.220266,-3.37844 0.75006,-0.2182 1.313696,-0.46827 2.74889,-1.21951 0.762117,-0.39889 3.04165,-1.15109 3.905373,-1.28865 0.328108,-0.0522 0.725742,-0.19226 0.88367,-0.3113 0.157923,-0.11905 1.845313,-0.49961 3.749751,-0.84598 3.178856,-0.57811 3.585556,-0.59346 4.96278,-0.18728 0.825092,0.24343 1.771071,0.64214 2.102178,0.88631 0.694153,0.51191 2.204902,3.09448 2.26417,3.87049 0.02203,0.28891 0.253445,0.50991 0.514172,0.49147 0.561099,-0.0398 0.306431,-1.86414 -1.041085,-7.45775 -1.04009,-4.31756 -1.496712,-5.62598 -2.018912,-5.78511 -0.22953,-0.07 -1.44287,0.37018 -2.696318,0.978 -2.696644,1.30767 -5.192668,1.78357 -7.902816,1.50681 -2.187486,-0.22352 -5.621465,-1.02217 -6.186619,-1.43904 -0.632359,-0.46649 -3.409156,-1.96815 -4.639473,-2.50898 -0.650117,-0.28571 -2.236675,-1.46378 -3.525687,-2.61779 -1.289016,-1.15397 -2.723784,-2.26054 -3.188383,-2.45905 -0.977977,-0.41787 -0.924445,-0.71801 0.193353,-1.08418 0.437521,-0.14321 1.124127,-0.52867 1.525795,-0.85639 2.64706,-2.15955 11.03743,-2.90556 15.45496,-1.37416 0.340119,0.11798 1.550741,0.45458 2.690238,0.74815 2.507033,0.64584 5.259636,2.30646 6.20762,3.74497 0.38358,0.58205 0.823474,1.65895 0.977546,2.39309 0.339444,1.61751 0.765255,2.29942 1.079766,1.7292 0.117484,-0.21286 -0.0334,-1.49178 -0.335463,-2.84174 -0.301989,-1.34992 -0.697392,-4.44599 -0.878677,-6.88009 -0.378775,-5.08594 -0.119331,-4.80406 -3.448641,-3.7465 -2.454375,0.77963 -4.802454,0.89196 -6.382545,0.30526 -2.040088,-0.75739 -5.22593,-3.10464 -9.790923,-7.21368 -2.303345,-2.07326 -4.64938,-4.05715 -5.213407,-4.40861 -0.564027,-0.35146 -1.032507,-0.73791 -1.04106,-0.85884 -0.0085,-0.12083 0.416732,-0.34471 0.945087,-0.49741 0.528355,-0.1528 1.136376,-0.44136 1.351154,-0.6415 0.214782,-0.20007 1.387832,-0.4635 2.606784,-0.58518 2.322379,-0.2317 4.216132,0.1521 8.060574,1.63404 2.252535,0.86833 2.657632,1.00692 4.538894,1.55287 3.253884,0.94423 6.105023,3.73704 6.933729,6.79186 0.456934,1.68439 0.914053,2.61313 1.144787,2.32589 0.06656,-0.0828 -0.0078,-2.79984 -0.165386,-6.03774 l -0.286424,-5.88714 -1.692897,-0.20824 c -0.931097,-0.11443 -2.533575,-0.2843 -3.561068,-0.37733 -4.23471,-0.38358 -8.079294,-2.1964 -12.18119,-5.74375 -3.214737,-2.78012 -4.266313,-4.02801 -5.400713,-6.40888 -0.400773,-0.84115 -1.023605,-1.80387 -1.384065,-2.13933 -0.904515,-0.84182 -0.586784,-1.22789 0.877198,-1.06588 0.67242,0.0743 1.742791,0.002 2.378598,-0.16169 1.683146,-0.43248 7.320123,0.0618 8.996872,0.78902 0.334611,0.14498 1.279069,0.51751 2.09883,0.8276 3.060708,1.15774 8.068822,7.36819 9.209079,11.41995 0.274554,0.97558 0.585298,1.76768 0.690557,1.76026 0.341967,-0.0249 0.478455,-6.86592 0.162899,-8.16659 -0.168656,-0.69516 -0.693276,-2.16143 -1.165821,-3.25833 -1.176252,-2.73044 -2.235301,-7.17256 -2.127842,-8.92508 0.172103,-2.80666 2.198889,-6.63432 5.85711,-11.06138 1.310391,-1.58577 2.441006,-3.12489 2.512477,-3.42027 0.20604,-0.85149 0.737075,-0.66496 0.714652,0.25124 z"
       id="path828"
       inkscape:connector-curvature="0" />
  </g>
</svg>
