<?xml version="1.0" encoding="UTF-8" standalone="no"?>
<!-- Created with Inkscape (http://www.inkscape.org/) -->

<svg
   xmlns:dc="http://purl.org/dc/elements/1.1/"
   xmlns:cc="http://creativecommons.org/ns#"
   xmlns:rdf="http://www.w3.org/1999/02/22-rdf-syntax-ns#"
   xmlns:svg="http://www.w3.org/2000/svg"
   xmlns="http://www.w3.org/2000/svg"
   xmlns:sodipodi="http://sodipodi.sourceforge.net/DTD/sodipodi-0.dtd"
   xmlns:inkscape="http://www.inkscape.org/namespaces/inkscape"
   width="234.6183mm"
   height="234.6183mm"
   viewBox="0 0 234.61829 234.6183"
   version="1.1"
   id="svg836"
   inkscape:version="0.92.3 (2405546, 2018-03-11)"
   sodipodi:docname="type-lobed.svg">
  <defs
     id="defs830" />
  <sodipodi:namedview
     id="base"
     pagecolor="#ffffff"
     bordercolor="#666666"
     borderopacity="1.0"
     inkscape:pageopacity="0.0"
     inkscape:pageshadow="2"
     inkscape:zoom="0.24748737"
     inkscape:cx="-38.029778"
     inkscape:cy="239.5805"
     inkscape:document-units="mm"
     inkscape:current-layer="layer1"
     showgrid="false"
     fit-margin-top="0"
     fit-margin-left="0"
     fit-margin-right="0"
     fit-margin-bottom="0"
     inkscape:window-width="1920"
     inkscape:window-height="1017"
     inkscape:window-x="1912"
     inkscape:window-y="-8"
     inkscape:window-maximized="1" />
  <metadata
     id="metadata833">
    <rdf:RDF>
      <cc:Work
         rdf:about="">
        <dc:format>image/svg+xml</dc:format>
        <dc:type
           rdf:resource="http://purl.org/dc/dcmitype/StillImage" />
        <dc:title></dc:title>
      </cc:Work>
    </rdf:RDF>
  </metadata>
  <g
     inkscape:label="Layer 1"
     inkscape:groupmode="layer"
     id="layer1"
     transform="translate(262.64496,-3.1209903)">
    <path
       style="fill:#008000;stroke-width:0.35277778"
       d="m -149.48817,237.26883 c 2.07429,-6.69598 5.68611,-14.83321 6.7038,-22.55902 2.17346,-15.1295 -4.64578,-29.95341 -4.72977,-44.73489 -1.15522,2.75781 -6.27977,16.55231 -12.10189,21.01529 -12.84406,9.77409 -26.16511,22.61704 -43.38114,22.66521 -12.6527,0.78327 -3.95647,-16.69488 -15.25503,-15.85865 -8.44744,-1.0147 -14.12925,-1.38974 -19.46198,-6.56039 -5.37837,-4.40238 -14.21722,-10.31593 -11.93148,-18.42291 6.71134,-8.25221 15.77731,-14.85152 26.77932,-15.57734 3.1552,-1.71285 19.07839,3.69682 13.33544,-1.76376 -12.29924,-5.64066 -27.09772,-5.55569 -37.97122,-14.25615 -4.67265,-6.42174 9.42557,-12.14553 -1.26139,-16.16459 -6.14029,-7.84417 -12.21763,-25.656585 4.02908,-24.2963 7.62675,-3.472736 19.15765,3.75077 22.18734,-5.527616 10.38282,-2.997665 21.30204,0.974215 28.5818,8.527596 5.50023,3.76199 21.50402,20.68633 17.22449,3.80836 -2.54508,-16.383081 -18.74469,-27.593711 -18.01701,-44.80735 -1.98144,-10.443432 5.09597,-28.998677 17.99869,-18.823066 15.01512,10.347639 3.66524,-19.004791 16.0785,-20.787562 7.20601,-3.223008 7.01905,-27.5159926 18.12285,-17.7062996 5.27048,10.8748606 15.95219,18.9477106 16.39103,31.8788656 3.5122,6.667664 18.13561,-6.852528 21.80843,5.299663 6.996317,12.459114 -3.66465,24.51985 -7.21719,36.154423 -2.94034,11.253576 -6.60263,22.614736 -6.6643,34.332866 -0.2062,5.2094 8.48329,0.79915 11.22585,-3.41989 7.278657,-8.44364 13.568257,-18.942561 24.972347,-22.283092 4.528403,-3.381566 9.977469,-3.196426 15.334549,-2.604868 7.772908,0.244094 5.161656,10.838897 11.153416,4.749119 6.880033,0.64438 15.469036,-2.811053 20.707637,2.736902 2.492147,10.854449 -5.398434,20.978799 -8.707918,30.902939 8.953369,8.5561 0.184038,20.59226 -10.376825,21.85006 -9.916718,3.67176 -21.113033,5.45168 -29.75555,11.57596 7.423044,5.55564 22.588976,-0.08 30.302315,8.74658 5.001706,5.98744 18.49618,16.76355 7.335982,23.08946 -9.098457,3.92786 -14.53417,12.2208 -22.544181,15.98022 -7.836849,3.00857 -20.55791,-8.95035 -24.098535,0.56654 -6.39351,11.14259 -23.831707,-0.60572 -31.053017,-6.87962 -7.87552,-5.29173 -15.45335,-16.57888 -19.53906,-22.30421 2.86603,16.08296 8.28356,33.07328 2.43093,49.13348 -2.90782,3.6464 -1.28231,15.25909 -8.63631,12.32404 z"
       id="path1405"
       inkscape:connector-curvature="0"
       inkscape:transform-center-x="13.898015" />
  </g>
</svg>
