<?xml version="1.0" encoding="UTF-8" standalone="no"?>
<!-- Created with Inkscape (http://www.inkscape.org/) -->

<svg
   xmlns:dc="http://purl.org/dc/elements/1.1/"
   xmlns:cc="http://creativecommons.org/ns#"
   xmlns:rdf="http://www.w3.org/1999/02/22-rdf-syntax-ns#"
   xmlns:svg="http://www.w3.org/2000/svg"
   xmlns="http://www.w3.org/2000/svg"
   xmlns:sodipodi="http://sodipodi.sourceforge.net/DTD/sodipodi-0.dtd"
   xmlns:inkscape="http://www.inkscape.org/namespaces/inkscape"
   width="752.1286"
   height="752.1286"
   viewBox="0 0 199.00068 199.00069"
   version="1.1"
   id="svg1979"
   inkscape:version="0.92.3 (2405546, 2018-03-11)"
   sodipodi:docname="type-needle-like.svg">
  <defs
     id="defs1973" />
  <sodipodi:namedview
     id="base"
     pagecolor="#ffffff"
     bordercolor="#666666"
     borderopacity="1.0"
     inkscape:pageopacity="0.0"
     inkscape:pageshadow="2"
     inkscape:zoom="0.35"
     inkscape:cx="-134.67902"
     inkscape:cy="372.95712"
     inkscape:document-units="mm"
     inkscape:current-layer="layer1"
     showgrid="false"
     showguides="false"
     inkscape:window-width="1920"
     inkscape:window-height="1017"
     inkscape:window-x="1912"
     inkscape:window-y="-8"
     inkscape:window-maximized="1"
     fit-margin-top="0"
     fit-margin-left="0"
     fit-margin-right="0"
     fit-margin-bottom="0"
     units="px" />
  <metadata
     id="metadata1976">
    <rdf:RDF>
      <cc:Work
         rdf:about="">
        <dc:format>image/svg+xml</dc:format>
        <dc:type
           rdf:resource="http://purl.org/dc/dcmitype/StillImage" />
        <dc:title></dc:title>
      </cc:Work>
    </rdf:RDF>
  </metadata>
  <g
     inkscape:label="Layer 1"
     inkscape:groupmode="layer"
     id="layer1"
     transform="translate(-30.49592,-62.282526)">
    <path
       style="fill:#008000;stroke-width:0.155892"
       d="m 91.103864,261.27924 c -5.006567,0.09 0.454004,-7.12159 -5.343934,-8.38677 -1.873215,-2.37053 -11.392811,-10.56363 -7.72145,-11.59327 2.389044,1.58393 8.99709,7.31672 4.233501,1.16854 -2.591022,-4.55373 -2.916472,-10.38986 -7.288116,-13.79691 -3.180731,-2.10958 -8.18335,-11.84295 -0.720186,-5.99966 7.204506,6.12536 15.933945,12.27225 18.530818,21.81055 5.209911,-8.03635 -6.233993,-13.29864 -9.42932,-19.86423 -4.863916,-6.55193 -11.041792,-12.19743 -15.345079,-19.06211 -2.942142,-9.39146 8.422088,5.73319 11.11209,7.42855 6.55927,5.93736 12.529357,12.8722 16.289908,20.91524 -0.585517,7.32512 3.043141,-5.12304 -0.968312,-6.35794 -4.965025,-10.75544 -14.578026,-18.942 -18.371428,-30.20682 0.0863,-5.19522 6.35773,6.00026 8.560773,7.54284 2.827154,2.91389 8.038129,11.38929 8.729279,10.88946 -3.461042,-7.77605 -4.771894,-17.28784 -11.917559,-22.727 -3.702603,-2.53878 -12.790529,-12.95465 -2.843463,-7.34371 6.773261,4.92898 0.909097,-1.99929 2.808097,-5.36668 5.144113,6.56746 6.983896,15.34801 14.120842,20.55548 4.348655,5.17078 10.948615,12.24272 7.283725,19.32443 6.97121,-7.11069 0.14355,-13.82841 -4.287058,-19.97209 -4.882512,-7.62756 -13.057626,-13.45932 -15.399914,-22.5048 7.727793,3.59798 11.952089,12.59804 18.385922,18.29649 3.43397,5.56379 2.96984,2.62653 1.00767,-1.74267 -4.022342,-10.46058 -10.757212,-19.79073 -14.28846,-30.40608 1.346265,-1.64994 4.114085,3.26261 2.190217,-2.69127 1.219344,-4.22753 7.475963,9.38839 10.745563,11.48669 4.83672,7.25684 12.59576,14.06681 12.54164,23.361 -2.73095,8.75571 4.95011,-5.95121 2.53273,-8.33308 -5.92098,-10.07557 -12.68952,-19.64932 -20.433455,-28.43489 -2.249671,-2.96242 -8.597374,-9.44411 -6.187175,-11.81366 9.858035,8.3792 18.13662,18.53729 25.66885,29.00657 4.16767,3.0407 2.09303,16.24972 4.8728,5.68416 -2.45005,-6.92353 -8.49741,-13.09316 -13.26229,-19.01637 -4.88115,-5.97191 -11.69993,-11.09849 -14.388305,-18.37173 8.395975,4.09842 14.173665,11.95418 20.887355,18.22862 3.35877,3.08069 7.30263,10.80873 8.63745,12.638 6.26926,-9.06937 -6.22838,-11.00585 -10.68345,-16.8821 -6.66799,-6.15226 -13.829715,-12.0579 -19.452843,-19.17102 0.463165,-4.15514 9.263243,4.83103 11.979903,6.56738 2.33701,1.99146 12.46719,10.69007 5.67008,4.14447 -4.64726,-5.98141 -11.927102,-11.03368 -13.457583,-18.73212 7.352253,5.00722 12.844573,12.26565 19.594773,18.03925 4.79394,3.52668 10.57292,12.86059 10.22544,15.66732 6.16224,-7.96686 -4.08133,-13.89651 -8.24949,-20.13125 -5.25556,-6.29633 -11.7375,-11.85288 -15.47109,-19.23149 0.38333,-3.96441 9.05287,7.36151 12.31673,9.55669 2.41364,2.47677 10.91524,11.1481 4.59497,3.79047 -5.19844,-7.77523 -13.15051,-13.68864 -17.08309,-22.23675 0.29396,-4.92377 6.86858,5.75358 9.59928,7.20743 7.42999,7.38709 15.62197,15.10334 18.76214,25.39383 -2.60216,10.17056 6.27731,-5.73536 0.13987,-7.2741 -7.04396,-11.11481 -18.7223,-18.4795 -25.41455,-29.79138 2.63125,-3.32122 9.07494,6.98474 12.91598,9.51958 3.87758,2.96527 10.40908,10.889 12.79207,11.51393 -3.67992,-6.8854 -4.66674,-15.35577 -10.86129,-20.62088 -3.2821,-4.08551 -10.74628,-9.79957 -9.57128,-14.220463 3.47303,1.641153 10.75394,11.271063 6.88557,2.317193 -1.06924,-8.899644 6.76883,7.90484 8.11052,10.35361 4.30015,6.7332 13.12558,11.01542 13.76701,19.78986 -2.35138,7.22219 5.27133,-7.23766 0.25205,-8.49649 -6.73933,-9.89528 -15.06985,-18.78847 -20.54092,-29.490209 1.74942,-3.260926 8.11122,7.025719 11.07227,9.711079 2.61728,2.10796 11.75665,16.11533 6.7717,6.00859 -4.04378,-8.53847 -8.81659,-16.881196 -11.46041,-25.973116 0.55282,-6.4916 8.55524,5.241049 10.84365,7.276554 5.14792,5.100817 9.90406,11.379672 12.57702,17.577352 6.86089,-4.55957 -2.96699,-14.629305 -4.54331,-21.358404 -2.47734,-6.993014 -7.11366,-13.890284 -6.08664,-21.586098 5.89468,10.202871 11.04234,20.852197 15.42241,31.79421 -0.24515,8.586632 3.60726,-1.679694 0.10661,-4.910445 -2.44272,-9.703471 -8.09664,-18.811847 -8.03281,-28.988275 3.98493,3.991101 7.1703,14.399729 8.79539,16.46769 -1.29128,-5.113703 -4.89724,-13.010751 -2.83374,-16.94351 3.80538,8.405253 8.84496,16.963167 8.86657,26.444216 1.45884,5.183586 1.98328,-7.17788 2.1331,-9.911476 -0.12257,-3.305385 1.48314,-19.009942 3.82444,-8.926135 0.53866,6.36404 0.93182,14.349007 -2.61418,19.248045 2.34387,-1.438541 6.1552,-10.340185 3.49916,-2.50379 -3.36955,5.629703 5.27456,-5.135492 8.34705,-5.104432 7.79359,-2.027709 -3.48681,7.104857 -6.56247,8.699918 -3.72443,1.107711 -8.03517,3.965767 -1.69132,1.331364 9.254,-0.345251 19.0981,-0.527403 27.71491,3.183636 -7.42816,3.455213 -16.09263,0.418792 -24.02748,0.865264 -5.2936,-2.614057 -13.5845,1.350158 -13.74937,4.609832 6.7217,-5.308554 16.06772,-2.231342 23.88119,-1.797241 3.71406,0.692417 16.22542,1.939961 13.54454,4.920141 -8.87136,-0.10693 -17.4507,2.19656 -26.25347,3.26105 6.68751,0.61845 18.08514,-2.47567 22.13701,1.601 -7.13645,2.6479 -15.05426,1.87886 -22.51375,3.17613 -5.37932,1.35237 -14.89213,0.11826 -17.82444,2.28909 5.59639,0.66778 13.85898,-0.39055 20.48502,1.64376 4.44034,1.65005 13.42484,-5.62225 15.04044,-1.74672 -3.14239,2.29896 -8.94087,4.06817 -1.69028,4.61148 6.11688,2.83407 -7.9611,1.72838 -9.45475,5.8881 -11.27227,4.8071 -22.56635,9.71778 -33.93471,14.20725 -2.523,2.42737 -3.99092,8.06935 0.52338,3.41818 8.71179,-3.11101 18.21717,-2.12527 27.21533,-2.46736 3.17653,-1.71557 8.52985,-2.9644 5.99302,0.51493 10.82939,0.62819 -1.24807,4.74389 -5.75101,3.73099 -10.82582,5.45802 -21.76655,10.72959 -32.28164,16.80193 -3.87877,0.9164 -8.51452,3.48005 -8.22876,7.48458 3.33728,-6.68774 12.31239,-6.7965 18.54601,-9.41214 8.33453,-2.0386 16.86771,-4.7745 25.40963,-4.79736 -6.3543,5.94706 -15.76778,6.08303 -23.54221,9.26379 -6.93817,2.91084 -15.95107,3.6712 -21.27423,8.68077 -1.66902,3.35756 -5.78705,13.38356 -0.03,6.20823 9.44562,-8.32265 22.85994,-9.15426 34.86893,-10.12654 3.9717,-0.7681 15.93164,1.32699 5.9102,3.09389 -14.21887,1.62553 -28.88345,3.7738 -41.151,11.68742 -4.06488,-1.65082 -7.35411,7.51856 -2.49982,2.27752 10.55189,-4.38712 22.46142,-5.41037 33.77167,-4.51753 5.88973,1.99262 -7.0372,4.16815 -10.09219,4.08868 -8.70128,0.51007 -16.91335,3.59772 -25.31619,5.309 -4.12615,1.10275 -7.23412,12.25454 -2.82844,3.76423 12.44664,-6.18847 26.69447,-6.7754 40.26342,-8.2464 4.67268,-1.74094 11.10085,1.51921 2.85954,3.05157 -10.97008,2.66338 -22.38477,3.25448 -33.21105,6.51498 10.31243,0.22892 20.76561,0.22439 30.93564,1.94865 -6.25362,5.06817 -15.96133,1.59614 -23.57611,3.06614 -6.93338,0.44284 -14.25011,0.20751 -20.89441,1.70271 -3.26482,4.85959 -5.42229,10.59703 -8.41708,15.69956 3.59326,-6.80569 11.68527,-8.18951 18.57794,-9.68356 9.68394,-1.27172 19.5011,-2.75198 29.27339,-2.16554 -6.27939,6.22089 -16.64635,4.05274 -24.69967,6.25203 -3.67148,0.76814 -14.98215,2.72147 -13.4366,3.71745 10.34735,-0.52062 21.05401,-0.41855 31.13034,1.50425 -10.83271,4.94679 -23.36466,1.47596 -34.74553,4.20058 -6.67351,-0.83194 -12.37588,6.00935 -12.16616,10.18991 7.90033,-6.0386 18.5619,-5.63289 28.00433,-6.77021 4.28054,-1.04366 20.35713,-1.77244 8.70674,2.73115 -11.84199,2.77776 -24.44194,2.64764 -35.59368,7.96992 -5.298909,1.74144 -3.647657,3.71303 0.9307,1.53751 9.17882,-1.68452 18.69701,-2.41841 28.00661,-1.74243 4.04382,2.50785 -9.85084,4.12133 -12.57445,5.17019 -7.81023,2.64234 -17.03411,4.61571 -23.798593,8.10708 0.608067,1.89619 8.474733,-4.62261 12.533973,-3.70038 5.36054,-0.54384 14.21848,-1.0365 17.9415,-0.5106 -7.75276,5.24772 -17.83972,3.73909 -26.26399,7.41012 -4.611455,-2.08059 -10.412805,10.71881 -4.184004,5.02666 2.7142,-1.38261 13.970544,-5.64548 6.535354,-0.28936 -4.922468,0.57393 -7.105057,5.47359 -10.934744,5.31106 z m -0.08051,-12.58995 c -2.231724,-6.55991 -0.890545,1.34364 0,0 z m 5.96087,-4.62648 c 6.516436,-4.37521 -2.489437,-0.23163 0,0 z m 4.335016,-22.46441 c 1.28144,-2.9121 -5.375926,-12.1708 -4.978862,-11.4442 1.927051,3.47421 3.549792,11.62016 4.564492,12.62051 z m 9.19034,-18.49822 c 3.44445,-7.21679 -5.10362,-14.12782 -8.0571,-20.48094 3.36823,6.92173 7.11189,14.14665 7.13082,22.03839 0.33032,-0.50618 0.71493,-0.97972 0.92628,-1.55745 z m -8.36152,-21.01327 c -0.49951,-0.61387 0.17056,0.77291 0,0 z m 19.64496,-4.35826 c -0.13495,-0.82343 -0.36998,0.818 0,0 z m 10.63325,-19.87048 c 7.89567,-5.63144 16.49543,-10.08322 25.39937,-13.87078 -6.97201,0.9434 -14.98727,0.63862 -21.21322,3.37057 -0.54148,1.38843 -7.39423,13.58324 -4.18615,10.50021 z m 4.71943,-21.16808 c 2.34545,-4.38956 -6.03383,-10.72146 -1.31969,-2.67593 0.43075,0.19574 0.51164,4.72872 1.31969,2.67593 z m 3.52462,-1.08036 c 5.65703,-6.62784 15.49451,-7.88201 23.15717,-11.5787 2.37102,-0.97077 17.00962,-4.75699 7.08769,-3.437 -8.32845,3.38724 -16.62255,6.9229 -25.01058,10.10217 -3.24095,-1.77446 -6.73134,6.53006 -5.23428,4.91353 z m 2.57942,-6.47961 c -0.70644,0.007 -0.32712,0.87841 0,0 z m 2.44113,-2.61224 c 3.53225,-3.8712 14.49437,-5.57395 15.91515,-7.72112 -4.78522,0.8251 -12.77653,-6.10705 -14.64688,0.82009 -0.39522,1.65357 -7.07274,13.66602 -1.26827,6.90103 z m -1.50577,-7.94535 c 7.09892,-7.5444 -1.66664,-12.09154 -5.63385,-18.02219 -4.97095,-6.64546 3.03162,6.06854 3.511,8.86846 1.97078,1.37889 1.63958,10.61183 2.12285,9.15373 z m 8.39731,-9.19388 c 1.377,-1.89207 -4.26642,2.93767 0,0 z m 2.46973,-4.63922 c 3.94481,-2.18037 14.68637,-2.2481 15.05,-3.02112 -5.34847,0.44696 -14.78966,-2.315447 -16.41405,3.68227 l 1.36406,-0.66114 z m 3.15101,-9.339832 c 2.5647,-3.259532 -2.43884,-10.074238 -0.22515,-2.61776 -0.32131,2.328918 -2.92534,7.377862 0.22515,2.61776 z"
       id="path2552"
       inkscape:connector-curvature="0" />
  </g>
</svg>
